<?xml version="1.0" encoding="UTF-8" standalone="no"?>
<!-- Created with Inkscape (http://www.inkscape.org/) -->

<svg
   width="170mm"
   height="50mm"
   viewBox="0 0 170 50.000001"
   version="1.1"
   id="svg5"
   inkscape:version="1.1 (c4e8f9e, 2021-05-24)"
   sodipodi:docname="srabbit 604 XG logo.svg"
   xmlns:inkscape="http://www.inkscape.org/namespaces/inkscape"
   xmlns:sodipodi="http://sodipodi.sourceforge.net/DTD/sodipodi-0.dtd"
   xmlns="http://www.w3.org/2000/svg"
   xmlns:svg="http://www.w3.org/2000/svg">
  <sodipodi:namedview
     id="namedview7"
     pagecolor="#ffffff"
     bordercolor="#666666"
     borderopacity="1.0"
     inkscape:pageshadow="2"
     inkscape:pageopacity="0.0"
     inkscape:pagecheckerboard="0"
     inkscape:document-units="mm"
     showgrid="false"
     inkscape:zoom="0.83081173"
     inkscape:cx="312.34513"
     inkscape:cy="120.96603"
     inkscape:window-width="1332"
     inkscape:window-height="779"
     inkscape:window-x="0"
     inkscape:window-y="25"
     inkscape:window-maximized="0"
     inkscape:current-layer="layer1"
     height="50mm" />
  <defs
     id="defs2" />
  <g
     inkscape:label="圖層 1"
     inkscape:groupmode="layer"
     id="layer1"
     transform="translate(-33.069966,-76.887616)">
    <g
       aria-label="srabbit"
       id="text495"
       style="font-weight:bold;font-size:10.5833px;line-height:1.25;font-family:'Noto Sans';-inkscape-font-specification:'Noto Sans Bold';stroke-width:0.264583"
       transform="translate(2.941667,1.529167)">
      <path
         d="m 38.510447,82.683625 q 0,0.888831 -0.620115,1.353918 -0.614948,0.465086 -1.844843,0.465086 -0.63045,0 -1.074866,-0.08785 -0.444416,-0.08268 -0.831988,-0.248046 v -1.302242 q 0.439248,0.206705 0.987016,0.346231 0.552937,0.139525 0.971514,0.139525 0.857826,0 0.857826,-0.496092 0,-0.186034 -0.113687,-0.299722 -0.113688,-0.118855 -0.39274,-0.263549 -0.279052,-0.149861 -0.744138,-0.346231 -0.666624,-0.279052 -0.981849,-0.516763 -0.310058,-0.23771 -0.454752,-0.5426 -0.139526,-0.310058 -0.139526,-0.759642 0,-0.769976 0.594278,-1.188554 0.599444,-0.423745 1.694981,-0.423745 1.043861,0 2.030877,0.454751 l -0.475421,1.136878 q -0.434081,-0.186035 -0.811318,-0.30489 -0.377236,-0.118856 -0.769976,-0.118856 -0.69763,0 -0.69763,0.377237 0,0.211873 0.222208,0.366902 0.227376,0.155029 0.987017,0.459919 0.676959,0.273884 0.992184,0.511595 0.315226,0.23771 0.465087,0.547768 0.149861,0.310058 0.149861,0.738972 z"
         id="path2778" />
      <path
         d="m 42.975277,78.51335 q 0.320392,0 0.532265,0.04651 l -0.118855,1.47794 q -0.191202,-0.05168 -0.465087,-0.05168 -0.754473,0 -1.178219,0.387572 -0.418577,0.387572 -0.418577,1.085202 v 2.94038 H 39.750677 V 78.62187 h 1.193722 l 0.232543,0.971514 h 0.07752 q 0.268716,-0.485757 0.723468,-0.780312 0.459918,-0.299722 0.997352,-0.299722 z"
         id="path2780" />
      <path
         d="m 48.132568,84.399277 -0.30489,-0.78548 h -0.04134 q -0.397907,0.50126 -0.821652,0.69763 -0.418578,0.191202 -1.095537,0.191202 -0.831988,0 -1.312577,-0.475421 -0.475422,-0.475422 -0.475422,-1.353919 0,-0.919837 0.640786,-1.353918 0.645953,-0.439248 1.943027,-0.485757 l 1.00252,-0.03101 v -0.253213 q 0,-0.878497 -0.899167,-0.878497 -0.692462,0 -1.627803,0.418578 l -0.52193,-1.064531 q 0.997352,-0.52193 2.211744,-0.52193 1.162716,0 1.782832,0.506427 0.620115,0.506427 0.620115,1.539953 v 3.849882 z m -0.465086,-2.676831 -0.60978,0.02067 q -0.687294,0.02067 -1.02319,0.248046 -0.335896,0.227375 -0.335896,0.692462 0,0.666623 0.764809,0.666623 0.547768,0 0.873329,-0.315225 0.330728,-0.315225 0.330728,-0.837155 z"
         id="path2782" />
      <path
         d="m 54.065004,78.51335 q 1.02319,0 1.601964,0.800982 0.578775,0.795815 0.578775,2.185906 0,1.431433 -0.599445,2.216912 -0.594277,0.785479 -1.622635,0.785479 -1.018022,0 -1.596796,-0.73897 h -0.108521 l -0.263549,0.635618 H 50.85074 v -8.040828 h 1.576127 v 1.870681 q 0,0.356567 -0.06201,1.142046 h 0.06201 q 0.552936,-0.857826 1.638137,-0.857826 z m -0.506427,1.260901 q -0.583942,0 -0.852659,0.361734 -0.268716,0.356566 -0.279051,1.183386 v 0.170532 q 0,0.930173 0.273884,1.333248 0.279052,0.403074 0.878496,0.403074 0.485757,0 0.769977,-0.444415 0.289387,-0.449584 0.289387,-1.302242 0,-0.852659 -0.289387,-1.276404 -0.289387,-0.428913 -0.790647,-0.428913 z"
         id="path2784" />
      <path
         d="m 60.762249,78.51335 q 1.02319,0 1.601964,0.800982 0.578774,0.795815 0.578774,2.185906 0,1.431433 -0.599444,2.216912 -0.594277,0.785479 -1.622635,0.785479 -1.018023,0 -1.596797,-0.73897 h -0.10852 l -0.263549,0.635618 h -1.204057 v -8.040828 h 1.576126 v 1.870681 q 0,0.356567 -0.06201,1.142046 h 0.06201 q 0.552936,-0.857826 1.638138,-0.857826 z m -0.506428,1.260901 q -0.583941,0 -0.852658,0.361734 -0.268717,0.356566 -0.279052,1.183386 v 0.170532 q 0,0.930173 0.273884,1.333248 0.279052,0.403074 0.878497,0.403074 0.485757,0 0.769976,-0.444415 0.289387,-0.449584 0.289387,-1.302242 0,-0.852659 -0.289387,-1.276404 -0.289387,-0.428913 -0.790647,-0.428913 z"
         id="path2786" />
      <path
         d="m 64.178049,77.128426 q 0,-0.769977 0.857826,-0.769977 0.857826,0 0.857826,0.769977 0,0.366901 -0.217041,0.573606 -0.211872,0.201538 -0.640785,0.201538 -0.857826,0 -0.857826,-0.775144 z m 1.643305,7.270851 H 64.245228 V 78.62187 h 1.576126 z"
         id="path2788" />
      <path
         d="m 69.903778,83.246896 q 0.41341,0 0.992184,-0.180867 v 1.173051 q -0.589109,0.263549 -1.446935,0.263549 -0.945676,0 -1.379757,-0.475421 -0.428913,-0.48059 -0.428913,-1.436601 v -2.78535 h -0.754473 v -0.666624 l 0.868161,-0.527098 0.454751,-1.21956 h 1.007688 v 1.229895 h 1.617467 v 1.183387 h -1.617467 v 2.78535 q 0,0.335896 0.186034,0.496093 0.191202,0.160196 0.50126,0.160196 z"
         id="path2790" />
    </g>
    <g
       aria-label="604"
       id="text1489"
       style="font-weight:900;font-size:50.8px;line-height:1.25;font-family:Lato;-inkscape-font-specification:'Lato Heavy';stroke-width:0.264583"
       transform="translate(3.478978,0.953862)">
      <path
         d="m 46.197387,118.03135 q 1.2192,0 2.2606,-0.4572 1.0668,-0.4572 1.8288,-1.2446 0.762,-0.8128 1.1938,-1.8796 0.4572,-1.0922 0.4572,-2.3622 0,-1.4224 -0.4318,-2.54 -0.4064,-1.1176 -1.1684,-1.8796 -0.762,-0.762 -1.8542,-1.1684 -1.0668,-0.4064 -2.3876,-0.4064 -1.1938,0 -2.1844,0.4318 -0.9906,0.4064 -1.727199,1.1938 -0.7112,0.7874 -1.1176,1.8796 -0.4064,1.0922 -0.4064,2.4638 0,1.3716 0.3302,2.4638 0.3302,1.0922 1.016,1.8796 0.6858,0.7874 1.727199,1.2192 1.0414,0.4064 2.4638,0.4064 z m -1.27,-16.9672 q 1.778,-0.6604 3.9624,-0.6604 2.0066,0 3.9624,0.6604 1.9558,0.6604 3.5052,2.032 1.5494,1.3716 2.4892,3.4798 0.9652,2.0828 0.9652,4.9276 0,2.5908 -0.9652,4.9276 -0.9652,2.3114 -2.7432,4.064 -1.7526,1.7272 -4.2418,2.7432 -2.4892,1.016 -5.5118,1.016 -3.0988,0 -5.562599,-0.9652 -2.4638,-0.9906 -4.191,-2.7432 -1.7018,-1.7526 -2.6162,-4.191 -0.889,-2.4384 -0.889,-5.3594 0,-5.461 4.2164,-11.099796 l 8.331199,-11.2522 q 0.5842,-0.7366 1.6764,-1.27 1.1176,-0.5334 2.54,-0.5334 h 7.0104 l -10.9728,13.1064 z"
         id="path2771" />
      <path
         d="m 89.432155,105.33135 q 0,4.8514 -1.0414,8.4074 -1.0414,3.556 -2.8956,5.8928 -1.8288,2.3368 -4.3688,3.4798 -2.5146,1.143 -5.461,1.143 -2.9464,0 -5.460999,-1.143 -2.4892,-1.143 -4.318,-3.4798 -1.8288,-2.3368 -2.8702,-5.8928 -1.016,-3.556 -1.016,-8.4074 0,-4.8514 1.016,-8.407396 1.0414,-3.556 2.8702,-5.8928 1.8288,-2.3368 4.318,-3.4544 2.514599,-1.143 5.460999,-1.143 2.9464,0 5.461,1.143 2.54,1.1176 4.3688,3.4544 1.8542,2.3368 2.8956,5.8928 1.0414,3.555996 1.0414,8.407396 z m -8.128,0 q 0,-3.8354 -0.4826,-6.273796 -0.4826,-2.4638 -1.2954,-3.8608 -0.7874,-1.397 -1.8034,-1.905 -1.016,-0.5334 -2.0574,-0.5334 -1.0414,0 -2.0574,0.5334 -0.9906,0.508 -1.778,1.905 -0.761999,1.397 -1.244599,3.8608 -0.4572,2.438396 -0.4572,6.273796 0,3.8608 0.4572,6.2992 0.4826,2.4384 1.244599,3.8608 0.7874,1.397 1.778,1.9304 1.016,0.508 2.0574,0.508 1.0414,0 2.0574,-0.508 1.016,-0.5334 1.8034,-1.9304 0.8128,-1.4224 1.2954,-3.8608 0.4826,-2.4384 0.4826,-6.2992 z"
         id="path2773" />
      <path
         d="m 108.10512,109.47155 v -9.651996 q 0,-0.889 0.0508,-1.905 0.0762,-1.0414 0.2032,-2.159 l -9.778996,13.715996 z m 10.668,0 v 4.4196 q 0,0.5842 -0.4064,1.016 -0.381,0.4318 -1.1176,0.4318 h -2.286 v 8.509 h -6.858 v -8.509 H 93.220724 q -0.7366,0 -1.3462,-0.4572 -0.5842,-0.4572 -0.7366,-1.143 l -0.8128,-3.8862 17.119596,-23.012396 h 7.5184 v 22.631396 z"
         id="path2775" />
    </g>
    <g
       aria-label="XG"
       id="text2528"
       style="font-weight:bold;font-size:50.8px;line-height:1.25;font-family:Lato;-inkscape-font-specification:'Lato Bold';stroke-width:0.264583">
      <path
         d="m 165.92811,124.52242 h -6.8072 q -0.7112,0 -1.143,-0.3556 -0.4064,-0.3556 -0.6604,-0.8128 l -8.509,-14.097 q -0.2032,0.635 -0.4826,1.0922 l -8.1534,13.0048 q -0.3048,0.4318 -0.7112,0.8128 -0.381,0.3556 -1.016,0.3556 h -6.3754 l 12.192,-18.8976 -11.7094,-17.830797 h 6.8072 q 0.7112,0 1.016,0.2032 0.3302,0.1778 0.6096,0.6096 l 8.3566,13.461997 q 0.254,-0.635 0.6096,-1.27 l 7.6708,-12.064997 q 0.2794,-0.4826 0.6096,-0.7112 0.3302,-0.2286 0.8382,-0.2286 h 6.5278 l -11.811,17.551397 z"
         id="path3862" />
      <path
         d="m 199.00288,106.10742 v 14.859 q -2.794,2.0574 -5.969,3.0226 -3.1496,0.9398 -6.7564,0.9398 -4.4958,0 -8.1534,-1.397 -3.6322,-1.397 -6.223,-3.8862 -2.5654,-2.4892 -3.9624,-5.9436 -1.397,-3.4544 -1.397,-7.5438 0,-4.1402 1.3462,-7.594597 1.3462,-3.4544 3.81,-5.9436 2.4892,-2.4892 6.0198,-3.8608 3.5306,-1.3716 7.9248,-1.3716 2.2352,0 4.1656,0.3556 1.9558,0.3556 3.6068,0.9906 1.6764,0.6096 3.048,1.4986 1.3716,0.889 2.5146,1.9558 l -1.9558,3.0988 q -0.4572,0.7366 -1.1938,0.9144 -0.7366,0.1524 -1.6002,-0.381 -0.8382,-0.4826 -1.6764,-0.9652 -0.8382,-0.4826 -1.8796,-0.8382 -1.016,-0.3556 -2.3114,-0.5842 -1.27,-0.2286 -2.9464,-0.2286 -2.7178,0 -4.9276,0.9144 -2.1844,0.9144 -3.7338,2.6162 -1.5494,1.7018 -2.3876,4.089397 -0.8382,2.3876 -0.8382,5.334 0,3.1496 0.889,5.6388 0.9144,2.4638 2.54,4.191 1.651,1.7018 3.9624,2.6162 2.3114,0.889 5.1562,0.889 2.032,0 3.6322,-0.4318 1.6002,-0.4318 3.1242,-1.1684 v -6.6548 h -4.6228 q -0.6604,0 -1.0414,-0.3556 -0.3556,-0.381 -0.3556,-0.9144 v -3.8608 z"
         id="path3864" />
    </g>
  </g>
</svg>
