<?xml version="1.0" encoding="UTF-8" standalone="no"?>
<svg
   height="600"
   version="1.1"
   width="300"
   id="svg1738"
   sodipodi:docname="604 with usb brick.svg"
   inkscape:version="1.1.1 (3bf5ae0d25, 2021-09-20)"
   xmlns:inkscape="http://www.inkscape.org/namespaces/inkscape"
   xmlns:sodipodi="http://sodipodi.sourceforge.net/DTD/sodipodi-0.dtd"
   xmlns="http://www.w3.org/2000/svg"
   xmlns:svg="http://www.w3.org/2000/svg">
  <defs
     id="defs1742" />
  <sodipodi:namedview
     id="namedview1740"
     pagecolor="#ffffff"
     bordercolor="#666666"
     borderopacity="1.0"
     inkscape:pageshadow="2"
     inkscape:pageopacity="0.0"
     inkscape:pagecheckerboard="0"
     showgrid="false"
     inkscape:zoom="0.67991545"
     inkscape:cx="455.93904"
     inkscape:cy="227.23414"
     inkscape:window-width="1920"
     inkscape:window-height="1017"
     inkscape:window-x="-8"
     inkscape:window-y="-8"
     inkscape:window-maximized="1"
     inkscape:current-layer="strokes" />
  <g
     id="View Layer_LineSet"
     inkscape:groupmode="lineset"
     inkscape:label="View Layer_LineSet">
    <g
       id="strokes"
       inkscape:groupmode="layer"
       inkscape:label="strokes">
      <path
         d="m 253.501,570 0.6815,-0.063 z"
         fill="none"
         stroke="#000000"
         stroke-linecap="butt"
         stroke-linejoin="round"
         stroke-opacity="1"
         stroke-width="3"
         id="path10"
         sodipodi:nodetypes="ccc"
         style="fill:#999999;stroke:#ffffff;stroke-width:8;stroke-miterlimit:4;stroke-dasharray:none" />
      <path
         d=" M 113.475, 119.118 113.475, 119.118 113.475, 119.118 "
         fill="none"
         stroke="rgb(0, 0, 0)"
         stroke-linecap="butt"
         stroke-linejoin="round"
         stroke-opacity="1.0"
         stroke-width="3.0"
         id="path816"
         style="stroke-width:8;stroke-miterlimit:4;stroke-dasharray:none" />
      <path
         d="m 39,559 v 3.5 0 0 l 0.125,1.364 v 0 l 0.402,1.396 0.696,1.344 0.974,1.199 1.199,0.974 1.343,0.696 1.396,0.401 v 0 L 46.499,570 h 10e-4 207 0.001 l 1.364,-0.126 1.396,-0.401 1.343,-0.696 1.199,-0.974 0.974,-1.199 0.696,-1.344 0.402,-1.396 v 0 L 261,562.5 v 0 V 249 249 48 48 H 39 v 0 201 l 0.068,0.7435 z"
         fill="none"
         stroke="#000000"
         stroke-linecap="butt"
         stroke-linejoin="round"
         stroke-opacity="1"
         stroke-width="3"
         id="path932"
         sodipodi:nodetypes="cccccccccccccccccccccccccccccccccccc"
         style="fill:#808080;stroke:#808080;stroke-width:8;stroke-miterlimit:4;stroke-dasharray:none" />
      <path
         d="m 255.313,257.368 v 0 l 1.612,-0.835 1.439,-1.169 1.169,-1.439 0.835,-1.613 0.379,-1.319 v 0 c 0.39799,-2.5331 0.0361,-0.12559 -0.379,1.319 l -0.835,1.613 -1.169,1.439 -1.439,1.169 -1.612,0.835 -1.675,0.481 L 252,258 v 0 l 1.638,-0.151 v 0 L 252,258 H 48 l -1.638,-0.151 v 0 l -1.675,-0.481 -1.612,-0.835 -1.439,-1.169 -1.169,-1.439 v 0 l -0.835,-1.613 -0.482,-1.675 -0.014,-0.15 v 0 l 0.014,0.15 v 0 l 0.482,1.675 0.835,1.613 1.169,1.439 1.439,1.169 1.612,0.835 1.675,0.481 c 69.65174,0.30251 139.30073,-0.11007 208.951,-0.481 z"
         fill="none"
         stroke="#000000"
         stroke-linecap="butt"
         stroke-linejoin="round"
         stroke-opacity="1"
         stroke-width="3"
         id="path918"
         sodipodi:nodetypes="cccccccccccccccccccccccccccccccccccccccc"
         style="fill:#808080;stroke:#000000;stroke-width:8;stroke-miterlimit:4;stroke-dasharray:none" />
      <path
         d="M 261,250.5 V 48 48 H 39 v 0 201 m 0,0 0.068,1.5"
         fill="none"
         stroke="#000000"
         stroke-linecap="butt"
         stroke-linejoin="round"
         stroke-opacity="1"
         stroke-width="3"
         id="path932-4"
         sodipodi:nodetypes="cccccccc"
         style="fill:#808080;stroke:#000000;stroke-width:8;stroke-miterlimit:4;stroke-dasharray:none" />
    </g>
  </g>
</svg>
