<?xml version="1.0" encoding="UTF-8" standalone="no"?>
<svg
   height="600"
   version="1.1"
   width="300"
   id="svg2306"
   sodipodi:docname="604 body.svg"
   inkscape:version="1.1.1 (3bf5ae0d25, 2021-09-20)"
   xmlns:inkscape="http://www.inkscape.org/namespaces/inkscape"
   xmlns:sodipodi="http://sodipodi.sourceforge.net/DTD/sodipodi-0.dtd"
   xmlns="http://www.w3.org/2000/svg"
   xmlns:svg="http://www.w3.org/2000/svg">
  <defs
     id="defs2310" />
  <sodipodi:namedview
     id="namedview2308"
     pagecolor="#ffffff"
     bordercolor="#666666"
     borderopacity="1.0"
     inkscape:pageshadow="2"
     inkscape:pageopacity="0.0"
     inkscape:pagecheckerboard="0"
     showgrid="false"
     inkscape:zoom="1"
     inkscape:cx="213"
     inkscape:cy="230.5"
     inkscape:window-width="1920"
     inkscape:window-height="1017"
     inkscape:window-x="-8"
     inkscape:window-y="-8"
     inkscape:window-maximized="1"
     inkscape:current-layer="strokes" />
  <g
     id="View Layer_LineSet"
     inkscape:groupmode="lineset"
     inkscape:label="View Layer_LineSet">
    <g
       id="strokes"
       inkscape:groupmode="layer"
       inkscape:label="strokes">
      <path
         d="m 39,102 v 460.5 0 l 0.125,1.364 0.402,1.396 0.696,1.344 0.974,1.199 1.199,0.974 1.343,0.696 1.396,0.401 1.364,0.126 h 10e-4 207 l 1.365,-0.126 1.396,-0.401 v 0 l 1.343,-0.696 1.199,-0.974 0.974,-1.199 0.696,-1.344 0.402,-1.396 v 0 L 261,562.5 v 0 0 V 102"
         fill="none"
         stroke="#000000"
         stroke-linecap="round"
         stroke-linejoin="round"
         stroke-opacity="1"
         stroke-width="3"
         id="path534"
         sodipodi:nodetypes="cccccccccccccccccccccccccc"
         style="fill:#808080;stroke-width:8;stroke-miterlimit:4;stroke-dasharray:none;stroke:#808080" />
      <path
         d="m 261,102 v -1.5"
         fill="none"
         stroke="#000000"
         stroke-linecap="round"
         stroke-linejoin="round"
         stroke-opacity="1"
         stroke-width="3"
         id="path2008"
         sodipodi:nodetypes="cc"
         style="fill:#808080;stroke-width:8;stroke-miterlimit:4;stroke-dasharray:none" />
      <path
         d="m 39,102 h 222 m 0,0 V 48 H 39 v 54"
         fill="none"
         stroke="#000000"
         stroke-linecap="round"
         stroke-linejoin="round"
         stroke-opacity="1"
         stroke-width="3"
         id="path2010"
         sodipodi:nodetypes="cccccc"
         style="fill:#808080;stroke-width:8;stroke-miterlimit:4;stroke-dasharray:none;stroke:#808080" />
      <path
         d="M 35,102 H 265"
         fill="none"
         stroke="#000000"
         stroke-linecap="round"
         stroke-linejoin="round"
         stroke-opacity="1"
         stroke-width="3"
         id="path2010-6"
         sodipodi:nodetypes="cc"
         style="fill:#808080;stroke:#000000;stroke-width:8;stroke-linecap:butt;stroke-linejoin:miter;stroke-miterlimit:4;stroke-dasharray:none" />
      <g
         id="strokes-8"
         inkscape:label="strokes"
         transform="translate(137.44021,-152.57805)"
         style="fill:#ffffff;stroke:#ffffff">
        <path
           d="m -55.867581,221.0054 -2.164248,-1.75927 -2.425151,-1.25483 -2.519573,-0.72558 -2.462423,-0.22602 -2.464908,0.22602 -2.519573,0.72558 -2.42515,1.25483 -2.164249,1.75927 -1.759229,2.1643 -1.254816,2.42522 -0.725557,2.51964 -0.226116,2.46495 0.226116,2.46248 0.613742,2.13946 0.02982,0.10443 0.082,0.27575 0.09939,0.19373 0.01492,0.0299 0.203751,0.3926 0.787678,1.52323 0.149086,0.28564 0.201268,0.24842 1.533113,1.88601 0.02484,0.0322 0.01739,0.0116 2.146856,1.7444 2.42515,1.25733 2.519573,0.72557 2.464909,0.22369 2.462423,-0.22369 2.519572,-0.72557 2.425151,-1.25733 2.164248,-1.75681 1.759229,-2.16677 1.257301,-2.42522 0.723073,-2.51965 0.226115,-2.46247 -0.216176,-2.38048 -0.0099,-0.0844 -0.07951,-0.28332 -0.521805,-1.80895 -0.05964,-0.20624 -0.005,-0.0232 -0.05715,-0.19867 -0.255933,-0.4945 -0.101876,-0.19634 -0.491988,-0.94673 -0.0323,-0.0646 -0.375202,-0.7231 -0.536714,-0.66097 -0.01491,-0.0174 -1.207606,-1.48592"
           fill="none"
           stroke="#000000"
           stroke-linecap="round"
           stroke-linejoin="bevel"
           stroke-opacity="1"
           stroke-width="7.45444"
           id="path3092-9"
           style="fill:#ffffff;stroke:#ffffff" />
        <path
           d="m 70.132419,221.0054 -2.164248,-1.75927 -2.425151,-1.25483 -2.519573,-0.72558 -2.462423,-0.22602 -2.464908,0.22602 -2.519573,0.72558 -2.42515,1.25483 -2.164249,1.75927 -1.759229,2.1643 -1.254816,2.42522 -0.725557,2.51964 -0.226116,2.46495 0.226116,2.46248 0.613742,2.13946 0.02982,0.10443 0.082,0.27575 0.09939,0.19373 0.01492,0.0299 0.203751,0.3926 0.787678,1.52323 0.149086,0.28564 0.201268,0.24842 1.533113,1.88601 0.02484,0.0322 0.01739,0.0116 2.146856,1.7444 2.42515,1.25733 2.519573,0.72557 2.464909,0.22369 2.462423,-0.22369 2.519572,-0.72557 2.425151,-1.25733 2.164248,-1.75681 1.759229,-2.16677 1.257301,-2.42522 0.723073,-2.51965 0.226115,-2.46247 -0.216176,-2.38048 -0.0099,-0.0844 -0.07951,-0.28332 -0.521805,-1.80895 -0.05964,-0.20624 -0.005,-0.0232 -0.05715,-0.19867 -0.255933,-0.4945 -0.101876,-0.19634 -0.491988,-0.94673 -0.0323,-0.0646 -0.375202,-0.7231 -0.536714,-0.66097 -0.01491,-0.0174 -1.207606,-1.48592"
           fill="none"
           stroke="#000000"
           stroke-linecap="round"
           stroke-linejoin="bevel"
           stroke-opacity="1"
           stroke-width="7.45444"
           id="path3092-9-0"
           style="fill:#ffffff;stroke:#ffffff" />
      </g>
    </g>
  </g>
</svg>
