<?xml version="1.0" encoding="UTF-8" standalone="no"?>
<svg
   xmlns:dc="http://purl.org/dc/elements/1.1/"
   xmlns:cc="http://creativecommons.org/ns#"
   xmlns:rdf="http://www.w3.org/1999/02/22-rdf-syntax-ns#"
   xmlns:svg="http://www.w3.org/2000/svg"
   xmlns="http://www.w3.org/2000/svg"
   xmlns:sodipodi="http://sodipodi.sourceforge.net/DTD/sodipodi-0.dtd"
   xmlns:inkscape="http://www.inkscape.org/namespaces/inkscape"
   height="245"
   version="1.1"
   width="129"
   id="svg432"
   sodipodi:docname="604 speen 0001.svg"
   inkscape:version="1.0.2 (e86c870879, 2021-01-15, custom)">
  <metadata
     id="metadata438">
    <rdf:RDF>
      <cc:Work
         rdf:about="">
        <dc:format>image/svg+xml</dc:format>
        <dc:type
           rdf:resource="http://purl.org/dc/dcmitype/StillImage" />
        <dc:title></dc:title>
      </cc:Work>
    </rdf:RDF>
  </metadata>
  <defs
     id="defs436" />
  <sodipodi:namedview
     pagecolor="#ffffff"
     bordercolor="#666666"
     borderopacity="1"
     objecttolerance="10"
     gridtolerance="10"
     guidetolerance="10"
     inkscape:pageopacity="0"
     inkscape:pageshadow="2"
     inkscape:window-width="1920"
     inkscape:window-height="1017"
     id="namedview434"
     showgrid="false"
     inkscape:zoom="3.1260012"
     inkscape:cx="46.822132"
     inkscape:cy="116.06131"
     inkscape:window-x="-8"
     inkscape:window-y="-8"
     inkscape:window-maximized="1"
     inkscape:current-layer="strokes" />
  <g
     id="View Layer_LineSet"
     inkscape:label="View Layer_LineSet"
     transform="translate(-177.42,-18.135)">
    <g
       id="strokes"
       inkscape:groupmode="layer"
       inkscape:label="strokes">
      <path
         d="m 299.807,27.781 0.003,-0.087 -0.487,-1.706 h -1.721 -10 -10 -4.188 -1.73 -10 -10 -10 -6.456 -1.73 -10 -10 -10 -6.457 -1.73 -8.913 -1.721 l -0.487,1.706 0.003,0.087"
         fill="none"
         stroke="#000000"
         stroke-linecap="round"
         stroke-linejoin="bevel"
         stroke-opacity="1"
         stroke-width="3"
         id="path182"
         style="fill:#808080" />
      <path
         d="m 299.323,25.988 h -10 -10 -5.909 -1.73 -10 -10 -10 -6.456 -1.73 -10 -10 -10 -6.457 -1.73 -10 -0.634 l 1.527,-5.353 h 10 10 10 10 10 10 10 10 10 10 10 1.592 l 1.527,5.353"
         fill="none"
         stroke="#000000"
         stroke-linecap="round"
         stroke-linejoin="bevel"
         stroke-opacity="1"
         stroke-width="3"
         id="path184"
         style="fill:#808080" />
      <path
         d="m 187.468,142.809 0.383,9.992 0.383,9.993 0.383,9.993 0.383,9.992 0.383,9.993 0.383,9.993 0.383,9.992 0.383,9.993 0.383,9.993 0.383,9.992 0.383,9.993 0.174,4.561 0.076,0.511 0.202,0.522 0.333,0.503 0.456,0.448 0.555,0.364 0.615,0.259 0.635,0.15 0.617,0.047 h 10 10 10 10 10 10 10 10 10 3.312 l 0.617,-0.047 0.635,-0.15 0.615,-0.259 0.555,-0.364 0.456,-0.448 0.333,-0.503 0.202,-0.522 0.076,-0.511 0.383,-9.993 0.383,-9.993 0.383,-9.992 0.383,-9.993 0.383,-9.993 0.383,-9.992 0.382,-9.993 0.383,-9.993 0.383,-9.992 0.383,-9.993 0.383,-9.993 0.175,-4.56"
         fill="none"
         stroke="#000000"
         stroke-linecap="round"
         stroke-linejoin="bevel"
         stroke-opacity="1"
         stroke-width="3"
         id="path392"
         style="fill:#808080" />
      <path
         d="m 302.671,37.719 -1.836,-6.434 m -117.67,0 -1.836,6.434"
         fill="none"
         stroke="#000000"
         stroke-linecap="round"
         stroke-linejoin="bevel"
         stroke-opacity="1"
         stroke-width="3"
         id="path394"
         sodipodi:nodetypes="cccc"
         style="fill:#808080" />
      <path
         d="m 302.671,37.719 h -2.082 -1.155 -0.547 -10 -6.943 -0.342 -0.599 -0.196 -3.891 -0.118 -4.078 -1.928 -0.629 -6.534 -0.749 -1.808 -4.671 -0.452 -3.116 -0.071 -6.157 -0.064 -2.981 -10 -8.721 -4.455 -0.044 -4.477 -0.172 -2.906 -0.561 -4.856 -1.771 -0.786 -6.534 -0.592 -1.965 -3.893 -0.01 -0.021 -0.001 -6.682 -0.547 -1.155 -2.082"
         fill="none"
         stroke="#000000"
         stroke-linecap="round"
         stroke-linejoin="bevel"
         stroke-opacity="1"
         stroke-width="3"
         id="path396"
         style="fill:#808080" />
      <path
         d="m 296.261,142.933 0.271,-0.124 0.316,-0.145 0.759,-0.541 0.626,-0.667 0.459,-0.748 0.278,-0.777 0.108,-0.762 0.4,-9.992 0.399,-9.992 0.4,-9.992 0.4,-9.992 0.4,-9.992 0.4,-9.992 0.399,-9.992 0.4,-9.992 0.4,-9.992 0.404,-10.091 -0.409,-1.431 h -2.083 -0.001 -1.126 -0.027 -0.547 v 0 h -1.708 -2.905 -1.215 -10 -1.115 -0.342 -0.599 -0.196 -3.891 -0.014 -0.104 -0.476 -0.172 -0.471 -0.289 -1.21 -0.947 -0.513 -1.578 -0.35 -0.1 -0.529 -6.534 -0.625 -0.124 -0.434 -1.374 -0.717 -1.685 -2.269 -0.452 -3.116 -0.071 -6.157 -0.064 -2.981 -0.003 -10 -8.681 -0.037 -4.455 -0.044 -4.477 -0.172 -2.906 -0.561 -2.16 -1.916 -0.78 -1.311 -0.46 -0.131 -0.655 -6.534 -0.499 -0.093 -0.324 -1.641 -0.45 -0.716 -2.721 -0.006 -0.01 -0.021 -0.001 -0.854 -1.215 -2.905 -1.708 v 0 h -0.547 -0.027 -1.129 -0.001 -2.08 l -0.409,1.431 0.4,9.992 0.4,9.992 0.4,9.992 0.399,9.992 0.4,9.992 0.4,9.992 0.4,9.992 0.4,9.992 0.399,9.992 0.404,10.091 0.108,0.762 0.278,0.777 0.459,0.748 0.626,0.667 0.759,0.541 0.316,0.145 0.271,0.124"
         fill="none"
         stroke="#000000"
         stroke-linecap="round"
         stroke-linejoin="bevel"
         stroke-opacity="1"
         stroke-width="3"
         id="path398"
         style="fill:#808080" />
      <path
         d="m 180.92,39.15 h 0.465 2.081 1.154 0.547 9.056 0.173 0.235 1.654 0.27 1.296 6.034 2.724 0.464 1.46 4.09 0.361 2.716 0.187 8.836 10 8.848 8.577 0.012 0.592 0.078 2.935 0.252 3.905 1.497 0.427 2.449 6.034 1.571 0.307 1.617 0.529 0.08 2.703 0.009 3.625 0.282 0.513 0.648 10 6.62 0.547 1.154 2.081 0.465"
         fill="none"
         stroke="#000000"
         stroke-linecap="round"
         stroke-linejoin="bevel"
         stroke-opacity="1"
         stroke-width="3"
         id="path400"
         style="fill:#808080" />
      <path
         d="m 187.739,142.933 0.255,0.117 0.867,0.223 0.842,0.069 h 0.933 1.516 2.319 0.431 1.658 2.819 0.104 10 7.532 0.061 10 10 10 10 9.848 0.061 10 7.532 0.104 2.819 1.658 0.431 2.319 1.516 0.933 l 0.842,-0.069 0.867,-0.223 0.255,-0.117"
         fill="none"
         stroke="#000000"
         stroke-linecap="round"
         stroke-linejoin="bevel"
         stroke-opacity="1"
         stroke-width="3"
         id="path402"
         style="fill:#808080" />
      <path
         d="m 183.165,31.285 1,-3.504 m 115.642,0 c 0.37525,1.106101 0.69754,2.34608 1.028,3.504"
         fill="none"
         stroke="#000000"
         stroke-linecap="round"
         stroke-linejoin="bevel"
         stroke-opacity="1"
         stroke-width="3"
         id="path404"
         sodipodi:nodetypes="cccc"
         style="fill:#808080" />
      <path
         style="fill:#808080;stroke:#808080;stroke-width:0.113279;stroke-linejoin:round"
         d="m 185.67713,27.753613 c -0.85122,2.757842 -1.62241,5.540679 -2.39589,8.321085 0.3589,0.283413 1.03677,0.05608 1.52046,0.13296 38.61563,0.07796 77.23139,0.03433 115.84708,0.04619 0.15229,-0.516903 -0.30498,-1.224823 -0.38377,-1.813623 -0.63128,-2.231642 -1.26444,-4.462818 -1.93612,-6.682857 -1.1901,-0.169491 -2.48534,-0.02163 -3.7151,-0.07141 -36.28049,-5.7e-4 -72.56097,-0.0011 -108.84146,-0.0017 l -0.0914,0.0666 z"
         id="path1283" />
    </g>
  </g>
</svg>
