<?xml version="1.0" encoding="UTF-8" standalone="no"?>
<svg
   xmlns:dc="http://purl.org/dc/elements/1.1/"
   xmlns:cc="http://creativecommons.org/ns#"
   xmlns:rdf="http://www.w3.org/1999/02/22-rdf-syntax-ns#"
   xmlns:svg="http://www.w3.org/2000/svg"
   xmlns="http://www.w3.org/2000/svg"
   xmlns:sodipodi="http://sodipodi.sourceforge.net/DTD/sodipodi-0.dtd"
   xmlns:inkscape="http://www.inkscape.org/namespaces/inkscape"
   width="30mm"
   height="64mm"
   viewBox="0 0 30 64"
   version="1.1"
   id="svg2409"
   sodipodi:docname="604 body.svg"
   inkscape:version="1.0.2 (e86c870879, 2021-01-15, custom)">
  <defs
     id="defs2403" />
  <sodipodi:namedview
     id="base"
     pagecolor="#ffffff"
     bordercolor="#666666"
     borderopacity="1.0"
     inkscape:pageopacity="0.0"
     inkscape:pageshadow="2"
     inkscape:zoom="1.979899"
     inkscape:cx="66.370172"
     inkscape:cy="75.929121"
     inkscape:document-units="mm"
     inkscape:current-layer="strokes"
     inkscape:document-rotation="0"
     showgrid="false"
     inkscape:window-width="1272"
     inkscape:window-height="1040"
     inkscape:window-x="234"
     inkscape:window-y="0"
     inkscape:window-maximized="0" />
  <metadata
     id="metadata2406">
    <rdf:RDF>
      <cc:Work
         rdf:about="">
        <dc:format>image/svg+xml</dc:format>
        <dc:type
           rdf:resource="http://purl.org/dc/dcmitype/StillImage" />
        <dc:title></dc:title>
      </cc:Work>
    </rdf:RDF>
  </metadata>
  <g
     inkscape:label="Layer 1"
     inkscape:groupmode="layer"
     id="layer1"
     transform="translate(-277.14201,120.88737)">
    <g
       id="strokes"
       inkscape:label="strokes"
       transform="matrix(0.26458333,0,0,0.26458333,226.78572,-131.10769)"
       style="fill:#999999">
      <path
         d="m 294.99504,69.642037 v -10 -10 -1.955 h -10 -10 -10 -10 -10 -10 -10 -10 -10 -4.872 v 10 10 1.955"
         fill="none"
         stroke="#000000"
         stroke-linecap="round"
         stroke-linejoin="bevel"
         stroke-opacity="1"
         stroke-width="3"
         id="path3152"
         style="fill:#999999" />
      <path
         d="m 200.48504,69.642037 h -0.362 -0.741 v 10 10 10 10.000003 10 10 10 10 10 10 10 10 10 10 10 10 10 10 10 9.87 l 0.054,0.592 0.174,0.606 0.303,0.583 0.422,0.521 0.521,0.423 0.583,0.302 0.606,0.174 0.592,0.054 h 10 10 10 10 10 10 10 10 9.844 l 0.592,-0.054 0.606,-0.174 0.583,-0.302 0.521,-0.423 0.422,-0.521 0.303,-0.583 0.174,-0.606 0.054,-0.592 v -10 -10 -10 -10 -10 -10 -10 -10 -10 -10 -10 -10 -10 -10 -10 -10 -10.000003 -10 -10 -9.87 h -0.741 -0.362"
         fill="none"
         stroke="#000000"
         stroke-linecap="round"
         stroke-linejoin="bevel"
         stroke-opacity="1"
         stroke-width="3"
         id="path3422"
         style="fill:#999999" />
      <path
         d="m 294.63304,69.642037 h -1.14 -2.677 -0.81 -10 -8.507 -0.97 -5.228 -1.201 -10 -10 -10 -10 -5.732 -1.274 -5.228 -0.897 -5.857 -0.81 -2.677 -1.14"
         fill="none"
         stroke="#000000"
         stroke-linecap="round"
         stroke-linejoin="bevel"
         stroke-opacity="1"
         stroke-width="3"
         id="path3522"
         style="fill:#999999" />
      <path
         d="m 209.17804,62.505037 -0.258,-0.897 -0.091,-0.99 0.091,-0.99 0.291,-1.013 0.505,-0.975 0.707,-0.87 0.435,-0.353 0.435,-0.353 0.975,-0.505 1.012,-0.291 0.99,-0.091 0.991,0.091 1.012,0.291 0.975,0.505 0.435,0.353 0.435,0.353 0.671,0.826"
         fill="none"
         stroke="#000000"
         stroke-linecap="round"
         stroke-linejoin="bevel"
         stroke-opacity="1"
         stroke-width="3"
         id="path3090"
         style="fill:#999999" />
      <path
         d="m 218.07804,56.655037 -0.871,-0.708 -0.976,-0.505 -1.014,-0.292 -0.991,-0.091 -0.992,0.091 -1.014,0.292 -0.976,0.505 -0.871,0.708 -0.708,0.871 -0.505,0.976 -0.292,1.014 -0.091,0.992 0.091,0.991 0.247,0.861 0.012,0.042 0.033,0.111 0.04,0.078 0.006,0.012 0.082,0.158 0.317,0.613 0.06,0.115 0.081,0.1 0.617,0.759 0.01,0.013 0.007,0.005 0.864,0.702 0.976,0.506 1.014,0.292 0.992,0.09 0.991,-0.09 1.014,-0.292 0.976,-0.506 0.871,-0.707 0.708,-0.872 0.506,-0.976 0.291,-1.014 0.091,-0.991 -0.087,-0.958 -0.004,-0.034 -0.032,-0.114 -0.21,-0.728 -0.024,-0.083 -0.002,-0.009 -0.023,-0.08 -0.103,-0.199 -0.041,-0.079 -0.198,-0.381 -0.013,-0.026 -0.151,-0.291 -0.216,-0.266 -0.006,-0.007 -0.486,-0.598"
         fill="none"
         stroke="#000000"
         stroke-linecap="round"
         stroke-linejoin="bevel"
         stroke-opacity="1"
         stroke-width="3"
         id="path3092"
         style="fill:#ffffff;stroke:#ffffff" />
      <path
         d="m 273.43004,61.499037 -0.038,0.131 -0.003,0.011 -0.086,0.297 -0.133,0.464 -0.032,0.111 -0.004,0.009 -0.004,0.006 -0.067,0.129 -0.296,0.572 -0.135,0.26 -0.102,0.126 -0.529,0.652 -0.076,0.094 -0.094,0.075 -0.778,0.632 -0.976,0.506 -1.014,0.292 -0.991,0.09 -0.992,-0.09 -1.014,-0.292 -0.976,-0.506 -0.871,-0.707 -0.708,-0.872 -0.505,-0.976 -0.292,-1.014 -0.091,-0.991 0.044,-0.476 0.042,-0.456 0.004,-0.047 0.001,-0.013 0.004,-0.014 0.01,-0.036 0.055,-0.189 0.043,-0.151 0.18,-0.624 0.092,-0.179 0.008,-0.015 0.053,-0.102 0.013,-0.025 0.339,-0.655 0.266,-0.327 10e-4,-10e-4 0.007,-0.009 v 0 l 0.434,-0.534"
         fill="none"
         stroke="#000000"
         stroke-linecap="round"
         stroke-linejoin="bevel"
         stroke-opacity="1"
         stroke-width="3"
         id="path3084"
         style="fill:#ffffff;stroke:#ffffff" />
      <path
         d="m 264.23504,56.739037 0.397,-0.322 0.435,-0.353 0.974,-0.505 1.013,-0.291 0.99,-0.091 0.99,0.091 1.013,0.291 0.975,0.505 0.434,0.353 0.436,0.353 0.707,0.87 0.505,0.975 0.291,1.013 0.091,0.99 -0.096,1.005 -10e-4,0.018"
         fill="none"
         stroke="#000000"
         stroke-linecap="round"
         stroke-linejoin="bevel"
         stroke-opacity="1"
         stroke-width="3"
         id="path3086"
         style="fill:#ffffff;stroke:#ffffff" />
      <path
         d="m 273.43004,61.499037 0.091,-0.991 -0.091,-0.992 -0.292,-1.014 -0.506,-0.976 -0.707,-0.871 -0.872,-0.708 -0.976,-0.505 -1.014,-0.292 -0.991,-0.091 -0.992,0.091 -1.014,0.292 -0.976,0.505 -0.871,0.708"
         fill="none"
         stroke="#000000"
         stroke-linecap="round"
         stroke-linejoin="bevel"
         stroke-opacity="1"
         stroke-width="3"
         id="path3088"
         style="fill:#ffffff;stroke:#ffffff" />
      <path
         d="m 262.66704,60.032037 0.054,-0.5 0.007,-0.066"
         fill="none"
         stroke="#000000"
         stroke-linecap="round"
         stroke-linejoin="bevel"
         stroke-opacity="1"
         stroke-width="3"
         id="path3450"
         style="fill:#ffffff;stroke:#ffffff" />
      <path
         d="m 262.72104,59.532037 0.147,-0.509"
         fill="none"
         stroke="#000000"
         stroke-linecap="round"
         stroke-linejoin="bevel"
         stroke-opacity="1"
         stroke-width="3"
         id="path3452"
         style="fill:#ffffff;stroke:#ffffff" />
      <path
         d="m 262.78304,59.277037 0.085,-0.254 0.17,-0.51 0.068,-0.205"
         fill="none"
         stroke="#000000"
         stroke-linecap="round"
         stroke-linejoin="bevel"
         stroke-opacity="1"
         stroke-width="3"
         id="path3454"
         style="fill:#ffffff;stroke:#ffffff" />
      <path
         d="m 263.03804,58.513037 0.363,-0.701"
         fill="none"
         stroke="#000000"
         stroke-linecap="round"
         stroke-linejoin="bevel"
         stroke-opacity="1"
         stroke-width="3"
         id="path3456"
         style="fill:#ffffff;stroke:#ffffff" />
      <path
         d="m 263.15904,58.206037 0.242,-0.394 0.156,-0.254 0.221,-0.36"
         fill="none"
         stroke="#000000"
         stroke-linecap="round"
         stroke-linejoin="bevel"
         stroke-opacity="1"
         stroke-width="3"
         id="path3458"
         style="fill:#ffffff;stroke:#ffffff" />
      <path
         d="m 263.55704,57.558037 0.608,-0.749"
         fill="none"
         stroke="#000000"
         stroke-linecap="round"
         stroke-linejoin="bevel"
         stroke-opacity="1"
         stroke-width="3"
         id="path3460"
         style="fill:#ffffff;stroke:#ffffff" />
      <path
         d="m 263.78504,57.189037 0.38,-0.38 0.07,-0.07 0.323,-0.322 0.131,-0.131"
         fill="none"
         stroke="#000000"
         stroke-linecap="round"
         stroke-linejoin="bevel"
         stroke-opacity="1"
         stroke-width="3"
         id="path3462"
         style="fill:#ffffff;stroke:#ffffff" />
      <path
         d="m 272.00104,64.267037 -0.17,0.169"
         fill="none"
         stroke="#000000"
         stroke-linecap="round"
         stroke-linejoin="bevel"
         stroke-opacity="1"
         stroke-width="3"
         id="path3466"
         style="fill:#ffffff;stroke:#ffffff" />
      <path
         d="m 272.76704,63.229037 -0.237,0.386"
         fill="none"
         stroke="#000000"
         stroke-linecap="round"
         stroke-linejoin="bevel"
         stroke-opacity="1"
         stroke-width="3"
         id="path3468"
         style="fill:#ffffff;stroke:#ffffff" />
      <path
         d="m 273.30304,61.938037 -0.025,0.075 -0.215,0.644"
         fill="none"
         stroke="#000000"
         stroke-linecap="round"
         stroke-linejoin="bevel"
         stroke-opacity="1"
         stroke-width="3"
         id="path3470"
         style="fill:#ffffff;stroke:#ffffff" />
      <path
         d="m 273.39004,61.623037 -0.112,0.39"
         fill="none"
         stroke="#000000"
         stroke-linecap="round"
         stroke-linejoin="bevel"
         stroke-opacity="1"
         stroke-width="3"
         id="path3472"
         style="fill:#ffffff;stroke:#ffffff" />
    </g>
  </g>
</svg>
