<?xml version="1.0" encoding="UTF-8" standalone="no"?>
<!-- Created with Inkscape (http://www.inkscape.org/) -->

<svg
   width="74.26458mm"
   height="175.26459mm"
   viewBox="0 0 74.26458 175.26459"
   version="1.1"
   id="svg5"
   xmlns="http://www.w3.org/2000/svg"
   xmlns:svg="http://www.w3.org/2000/svg">
  <defs
     id="defs2">
    <marker
       id="DistanceX"
       orient="auto"
       refX="0"
       refY="0"
       style="overflow:visible">
      <path
         d="M 3,-3 -3,3 M 0,-5 V 5"
         style="stroke:#000000;stroke-width:0.5"
         id="path826" />
    </marker>
    <pattern
       id="Hatch"
       patternUnits="userSpaceOnUse"
       width="8"
       height="8"
       x="0"
       y="0">
      <path
         d="M8 4 l-4,4"
         stroke="#000000"
         stroke-width="0.25"
         linecap="square"
         id="path829" />
      <path
         d="M6 2 l-4,4"
         stroke="#000000"
         stroke-width="0.25"
         linecap="square"
         id="path831" />
      <path
         d="M4 0 l-4,4"
         stroke="#000000"
         stroke-width="0.25"
         linecap="square"
         id="path833" />
    </pattern>
    <symbol
       id="*MODEL_SPACE" />
    <symbol
       id="*PAPER_SPACE" />
  </defs>
  <g
     id="layer1"
     transform="translate(-43.605573,63.122587)">
    <g
       id="g1000"
       transform="matrix(-0.26458333,0,0,-0.26458333,80.737864,371.00971)">
      <path
         d="m 16.062991,1530.7087 a 16.062992,16.062992 0 1 0 -32.125984,0 16.062992,16.062992 0 1 0 32.125984,0 z"
         style="fill:none;stroke:#000000"
         id="path840" />
      <path
         d="m -26.456694,1323.3746 a 16.062992,16.062992 0 1 0 -32.125984,0 16.062992,16.062992 0 1 0 32.125984,0 z"
         style="fill:none;stroke:#000000"
         id="path842" />
      <path
         d="m 16.062991,1185.1519 a 16.062992,16.062992 0 1 0 -32.125984,0 16.062992,16.062992 0 1 0 32.125984,0 z"
         style="fill:none;stroke:#000000"
         id="path844" />
      <path
         d="m 58.582676,1323.3746 a 16.062992,16.062992 0 1 0 -32.125984,0 16.062992,16.062992 0 1 0 32.125984,0 z"
         style="fill:none;stroke:#000000"
         id="path846" />
      <path
         d="m -26.456694,1392.4859 a 16.062992,16.062992 0 1 0 -32.125984,0 16.062992,16.062992 0 1 0 32.125984,0 z"
         style="fill:none;stroke:#000000"
         id="path848" />
      <path
         d="m 16.062991,1254.2632 a 16.062992,16.062992 0 1 0 -32.125984,0 16.062992,16.062992 0 1 0 32.125984,0 z"
         style="fill:none;stroke:#000000"
         id="path850" />
      <path
         d="m 101.10236,1392.4859 a 16.062992,16.062992 0 1 0 -32.125983,0 16.062992,16.062992 0 1 0 32.125983,0 z"
         style="fill:none;stroke:#000000"
         id="path852" />
      <path
         d="m 101.10236,1116.0405 a 16.062992,16.062992 0 1 0 -32.125983,0 16.062992,16.062992 0 1 0 32.125983,0 z"
         style="fill:none;stroke:#000000"
         id="path854" />
      <path
         d="m -68.976379,1116.0405 a 16.062992,16.062992 0 1 0 -32.125981,0 16.062992,16.062992 0 1 0 32.125981,0 z"
         style="fill:none;stroke:#000000"
         id="path856" />
      <path
         d="m 58.582676,1046.9291 a 16.062992,16.062992 0 1 0 -32.125984,0 16.062992,16.062992 0 1 0 32.125984,0 z"
         style="fill:none;stroke:#000000"
         id="path858" />
      <path
         d="m 16.062991,1046.9291 a 16.062992,16.062992 0 1 0 -32.125984,0 16.062992,16.062992 0 1 0 32.125984,0 z"
         style="fill:none;stroke:#000000"
         id="path860" />
      <path
         d="m -26.456694,1116.0405 a 16.062992,16.062992 0 1 0 -32.125984,0 16.062992,16.062992 0 1 0 32.125984,0 z"
         style="fill:none;stroke:#000000"
         id="path862" />
      <path
         d="m 101.10236,1185.1519 a 16.062992,16.062992 0 1 0 -32.125983,0 16.062992,16.062992 0 1 0 32.125983,0 z"
         style="fill:none;stroke:#000000"
         id="path864" />
      <path
         d="m 101.10236,1461.5973 a 16.062992,16.062992 0 1 0 -32.125983,0 16.062992,16.062992 0 1 0 32.125983,0 z"
         style="fill:none;stroke:#000000"
         id="path866" />
      <path
         d="m 58.582676,1254.2632 a 16.062992,16.062992 0 1 0 -32.125984,0 16.062992,16.062992 0 1 0 32.125984,0 z"
         style="fill:none;stroke:#000000"
         id="path868" />
      <path
         d="m 58.582676,1185.1519 a 16.062992,16.062992 0 1 0 -32.125984,0 16.062992,16.062992 0 1 0 32.125984,0 z"
         style="fill:none;stroke:#000000"
         id="path870" />
      <path
         d="m -26.456694,1254.2632 a 16.062992,16.062992 0 1 0 -32.125984,0 16.062992,16.062992 0 1 0 32.125984,0 z"
         style="fill:none;stroke:#000000"
         id="path872" />
      <path
         d="m -68.976379,1254.2632 a 16.062992,16.062992 0 1 0 -32.125981,0 16.062992,16.062992 0 1 0 32.125981,0 z"
         style="fill:none;stroke:#000000"
         id="path874" />
      <path
         d="m -26.456694,1461.5973 a 16.062992,16.062992 0 1 0 -32.125984,0 16.062992,16.062992 0 1 0 32.125984,0 z"
         style="fill:none;stroke:#000000"
         id="path876" />
      <path
         d="m -26.456694,1530.7087 a 16.062992,16.062992 0 1 0 -32.125984,0 16.062992,16.062992 0 1 0 32.125984,0 z"
         style="fill:none;stroke:#000000"
         id="path878" />
      <path
         d="m -68.976379,1185.1519 a 16.062992,16.062992 0 1 0 -32.125981,0 16.062992,16.062992 0 1 0 32.125981,0 z"
         style="fill:none;stroke:#000000"
         id="path880" />
      <path
         d="m 16.062991,1323.3746 a 16.062992,16.062992 0 1 0 -32.125984,0 16.062992,16.062992 0 1 0 32.125984,0 z"
         style="fill:none;stroke:#000000"
         id="path882" />
      <path
         d="m -68.976379,1461.5973 a 16.062992,16.062992 0 1 0 -32.125981,0 16.062992,16.062992 0 1 0 32.125981,0 z"
         style="fill:none;stroke:#000000"
         id="path884" />
      <path
         d="m -68.976379,1323.3746 a 16.062992,16.062992 0 1 0 -32.125981,0 16.062992,16.062992 0 1 0 32.125981,0 z"
         style="fill:none;stroke:#000000"
         id="path886" />
      <path
         d="m 16.062991,1392.4859 a 16.062992,16.062992 0 1 0 -32.125984,0 16.062992,16.062992 0 1 0 32.125984,0 z"
         style="fill:none;stroke:#000000"
         id="path888" />
      <path
         d="m 58.582676,1530.7087 a 16.062992,16.062992 0 1 0 -32.125984,0 16.062992,16.062992 0 1 0 32.125984,0 z"
         style="fill:none;stroke:#000000"
         id="path890" />
      <path
         d="m 101.10236,1323.3746 a 16.062992,16.062992 0 1 0 -32.125983,0 16.062992,16.062992 0 1 0 32.125983,0 z"
         style="fill:none;stroke:#000000"
         id="path892" />
      <path
         d="m 58.582676,1116.0405 a 16.062992,16.062992 0 1 0 -32.125984,0 16.062992,16.062992 0 1 0 32.125984,0 z"
         style="fill:none;stroke:#000000"
         id="path894" />
      <path
         d="m -68.976379,1046.9291 a 16.062992,16.062992 0 1 0 -32.125981,0 16.062992,16.062992 0 1 0 32.125981,0 z"
         style="fill:none;stroke:#000000"
         id="path896" />
      <path
         d="m 101.10236,1046.9291 a 16.062992,16.062992 0 1 0 -32.125983,0 16.062992,16.062992 0 1 0 32.125983,0 z"
         style="fill:none;stroke:#000000"
         id="path898" />
      <path
         d="m -26.456694,1046.9291 a 16.062992,16.062992 0 1 0 -32.125984,0 16.062992,16.062992 0 1 0 32.125984,0 z"
         style="fill:none;stroke:#000000"
         id="path900" />
      <path
         d="m 16.062991,1116.0405 a 16.062992,16.062992 0 1 0 -32.125984,0 16.062992,16.062992 0 1 0 32.125984,0 z"
         style="fill:none;stroke:#000000"
         id="path902" />
      <path
         d="m 101.10236,1254.2632 a 16.062992,16.062992 0 1 0 -32.125983,0 16.062992,16.062992 0 1 0 32.125983,0 z"
         style="fill:none;stroke:#000000"
         id="path904" />
      <path
         d="m 101.10236,1530.7087 a 16.062992,16.062992 0 1 0 -32.125983,0 16.062992,16.062992 0 1 0 32.125983,0 z"
         style="fill:none;stroke:#000000"
         id="path906" />
      <path
         d="m 16.062991,1461.5973 a 16.062992,16.062992 0 1 0 -32.125984,0 16.062992,16.062992 0 1 0 32.125984,0 z"
         style="fill:none;stroke:#000000"
         id="path908" />
      <path
         d="m -68.976379,1392.4859 a 16.062992,16.062992 0 1 0 -32.125981,0 16.062992,16.062992 0 1 0 32.125981,0 z"
         style="fill:none;stroke:#000000"
         id="path910" />
      <path
         d="m 58.582676,1392.4859 a 16.062992,16.062992 0 1 0 -32.125984,0 16.062992,16.062992 0 1 0 32.125984,0 z"
         style="fill:none;stroke:#000000"
         id="path912" />
      <path
         d="m 58.582676,1461.5973 a 16.062992,16.062992 0 1 0 -32.125984,0 16.062992,16.062992 0 1 0 32.125984,0 z"
         style="fill:none;stroke:#000000"
         id="path914" />
      <path
         d="m -26.456694,1185.1519 a 16.062992,16.062992 0 1 0 -32.125984,0 16.062992,16.062992 0 1 0 32.125984,0 z"
         style="fill:none;stroke:#000000"
         id="path916" />
      <path
         d="m -68.976379,1530.7087 a 16.062992,16.062992 0 1 0 -32.125981,0 16.062992,16.062992 0 1 0 32.125981,0 z"
         style="fill:none;stroke:#000000"
         id="path918" />
      <path
         d="m 107.71653,1028.0315 v 529.1339 h -215.43306 v -529.1339 a 7.559055,7.559055 0 0 1 7.55905,-7.5591 h 200.31496 a 7.559055,7.559055 0 0 1 7.55905,7.5591 z"
         style="fill:none;stroke:#000000"
         id="path920" />
      <path
         d="m 107.71653,1557.1654 v -529.1339 a 7.559055,7.559055 0 0 0 -7.55905,-7.5591 h -200.31496 a 7.559055,7.559055 0 0 0 -7.55905,7.5591 v 529.1339 h -8.50394 -6.61418 a 3.779528,3.779528 0 0 1 -3.77952,-3.7796 v -540.4724 a 11.338583,11.338583 0 0 1 11.33858,-11.3386 h 22.677163 185.19685 22.677167 a 11.338583,11.338583 0 0 1 11.33858,11.3386 v 540.4724 a 3.779528,3.779528 0 0 1 -3.77952,3.7796 h -6.61418 z"
         style="fill:none;stroke:#000000"
         id="path922" />
      <path
         d="m -122.83465,1557.1654 h 6.61418 v 15.1181 h -23.62205 V 988.34646 a 9.448819,9.448819 0 0 1 9.44882,-9.44882 h 260.7874 a 9.448819,9.448819 0 0 1 9.44882,9.44882 v 583.93704 h -23.62205 v -15.1181 h 6.61418 a 3.779528,3.779528 0 0 0 3.77952,-3.7796 v -540.4724 a 11.338583,11.338583 0 0 0 -11.33858,-11.3386 H 92.598423 v -10.3937 h -185.19685 v 10.3937 h -22.677163 a 11.338583,11.338583 0 0 0 -11.33858,11.3386 v 540.4724 a 3.779528,3.779528 0 0 0 3.77952,3.7796 z"
         style="fill:none;stroke:#000000"
         id="path924" />
      <path
         d="m -109.6063,1630.8661 a 3.77953,3.77953 0 1 0 -7.55906,0 3.77953,3.77953 0 1 0 7.55906,0 z"
         style="fill:none;stroke:#000000"
         id="path926" />
      <path
         d="m 79.370077,1630.8661 a 3.779528,3.779528 0 1 0 -7.559055,0 3.779528,3.779528 0 1 0 7.559055,0 z"
         style="fill:none;stroke:#000000"
         id="path928" />
      <path
         d="m -78.425198,1602.5197 a 19.842521,19.842521 0 1 0 -39.685042,0 19.842521,19.842521 0 1 0 39.685042,0 z"
         style="fill:none;stroke:#000000"
         id="path930" />
      <path
         d="m 80.314959,1602.5197 a 19.84252,19.84252 0 1 0 -39.685039,0 19.84252,19.84252 0 1 0 39.685039,0 z"
         style="fill:none;stroke:#000000"
         id="path932" />
      <path
         d="m -124.72441,1587.4016 a 3.77953,3.77953 0 1 0 -7.55906,0 3.77953,3.77953 0 1 0 7.55906,0 z"
         style="fill:none;stroke:#000000"
         id="path934" />
      <path
         d="m 132.28346,1587.4016 a 3.779528,3.779528 0 1 0 -7.55905,0 3.779528,3.779528 0 1 0 7.55905,0 z"
         style="fill:none;stroke:#000000"
         id="path936" />
      <path
         d="m -93.543309,1564.7244 a 4.7244105,4.7244105 0 1 0 -9.448821,0 4.7244105,4.7244105 0 1 0 9.448821,0 z"
         style="fill:none;stroke:#000000"
         id="path938" />
      <path
         d="m 102.99213,1564.7244 a 4.7244105,4.7244105 0 1 0 -9.448821,0 4.7244105,4.7244105 0 1 0 9.448821,0 z"
         style="fill:none;stroke:#000000"
         id="path940" />
      <path
         d="m 4.72441,1564.7244 a 4.72441,4.72441 0 1 0 -9.44882,0 4.72441,4.72441 0 1 0 9.44882,0 z"
         style="fill:none;stroke:#000000"
         id="path942" />
      <path
         d="m 112.44095,1557.1654 a 3.779528,3.779528 0 0 1 3.77952,3.7795 v 12.2834 h 23.62205 v 67.0867 h -279.68504 v -67.0867 h 23.62205 v -12.2834 a 3.779528,3.779528 0 0 1 3.77952,-3.7795 z"
         style="fill:none;stroke:#000000"
         id="path944" />
      <path
         style="fill:none;stroke:#000000"
         d="m 89.8001,1613.97 6.0141,-11.41"
         id="path946" />
      <path
         d="m 98.397957,1600.9745 c -0.275801,0 -0.545534,0.032 -1.058351,0.1683 0,0 -0.243007,0.1035 -0.465438,0.2412 -0.222432,0.1377 -0.423676,0.3091 -0.599435,0.5063 -0.178564,0.2003 -0.33116,0.4268 -0.460511,0.6738"
         style="fill:none;stroke:#000000"
         id="path948" />
      <path
         style="fill:none;stroke:#000000"
         d="m 98.398,1600.97 h 0.7658"
         id="path950" />
      <path
         d="m 100.6884,1601.3863 c -0.22611,-0.1382 -0.4718,-0.2428 -0.728535,-0.3111 -0.128368,-0.034 -0.259457,-0.059 -0.392378,-0.076 -0.132921,-0.017 -0.267669,-0.025 -0.403727,-0.025"
         style="fill:none;stroke:#000000"
         id="path952" />
      <path
         d="m 101.75041,1602.5697 c -0.0608,-0.1208 -0.12787,-0.2369 -0.27692,-0.4604 0,0 -0.0823,-0.1073 -0.17148,-0.208 -0.17842,-0.2012 -0.38509,-0.3753 -0.61361,-0.515"
         style="fill:none;stroke:#000000"
         id="path954" />
      <path
         style="fill:none;stroke:#000000"
         d="m 101.75,1602.57 6.048,11.46"
         id="path956" />
      <path
         style="fill:none;stroke:#000000"
         d="m 107.798,1614.03 v -16.05"
         id="path958" />
      <path
         style="fill:none;stroke:#000000"
         d="m 107.798,1597.98 h 6.344"
         id="path960" />
      <path
         style="fill:none;stroke:#000000"
         d="m 114.142,1597.98 v 27.97"
         id="path962" />
      <path
         style="fill:none;stroke:#000000"
         d="m 114.142,1625.95 h -4.913"
         id="path964" />
      <path
         d="m 108.55839,1625.9329 c 0.0509,0 0.10291,0.01 0.20948,0.011 0,0 0.0545,0 0.11031,0 0.0558,0 0.11288,0 0.17127,0 0.0584,8e-4 0.1181,0 0.17916,0"
         style="fill:none;stroke:#000000"
         id="path966" />
      <path
         d="m 107.85003,1625.7823 c 0.0929,0.036 0.22923,0.078 0.34748,0.1023 0.0591,0.012 0.11878,0.022 0.17893,0.03 0.0601,0.01 0.12079,0.014 0.18195,0.018"
         style="fill:none;stroke:#000000"
         id="path968" />
      <path
         d="m 107.20808,1625.3576 c 0.0906,0.091 0.18995,0.1731 0.29754,0.2449 0.10759,0.072 0.24911,0.1425 0.34441,0.1798"
         style="fill:none;stroke:#000000"
         id="path970" />
      <path
         d="m 106.73653,1624.6923 c 0.0275,0.052 0.0679,0.1244 0.13947,0.2431 0,0 0.0371,0.057 0.0758,0.113 0.0772,0.1106 0.17912,0.2321 0.25624,0.3092"
         style="fill:none;stroke:#000000"
         id="path972" />
      <path
         style="fill:none;stroke:#000000"
         d="m 106.737,1624.69 -7.4014,-14.11"
         id="path974" />
      <path
         d="m 98.790611,1609.4987 c 0.01114,0.024 0.02232,0.048 0.08765,0.1871 0,0 0.05511,0.1146 0.111219,0.2284 0.05611,0.1138 0.113223,0.2269 0.171337,0.3391 0.05729,0.1107 0.115545,0.2206 0.174778,0.3298"
         style="fill:none;stroke:#000000"
         id="path976" />
      <path
         d="m 98.226379,1610.6373 c 0.0595,-0.1097 0.118004,-0.2205 0.233923,-0.446 0,0 0.05738,-0.1148 0.113742,-0.2306 0.05636,-0.1159 0.111686,-0.2329 0.16599,-0.3511 0.01696,-0.037 0.03382,-0.074 0.05058,-0.1109"
         style="fill:none;stroke:#000000"
         id="path978" />
      <path
         style="fill:none;stroke:#000000"
         d="m 98.2264,1610.64 -7.3463,14.05"
         id="path980" />
      <path
         d="m 90.385344,1625.3711 c 0.05067,-0.048 0.09826,-0.099 0.188387,-0.2038 0,0 0.04254,-0.055 0.08308,-0.1112 0.04077,-0.057 0.07951,-0.1156 0.116645,-0.1764 0.03714,-0.061 0.07918,-0.1359 0.106684,-0.1879"
         style="fill:none;stroke:#000000"
         id="path982" />
      <path
         d="m 89.748146,1625.7823 c 0.09429,-0.037 0.233317,-0.106 0.339873,-0.1754 0.05328,-0.035 0.10473,-0.072 0.154288,-0.1113 0.04956,-0.039 0.09723,-0.081 0.143037,-0.1245"
         style="fill:none;stroke:#000000"
         id="path984" />
      <path
         d="m 89.050636,1625.9327 c 0.120108,-0.01 0.238609,-0.024 0.355143,-0.049 0.116533,-0.025 0.25063,-0.066 0.342367,-0.1017"
         style="fill:none;stroke:#000000"
         id="path986" />
      <path
         d="m 88.369576,1625.9528 c 0.06393,0 0.125981,-4e-4 0.246442,0 0,0 0.05841,0 0.115056,0 0.113299,0 0.219534,-0.01 0.319562,-0.015"
         style="fill:none;stroke:#000000"
         id="path988" />
      <path
         style="fill:none;stroke:#000000"
         d="M 88.3696,1625.95 H 83.4564"
         id="path990" />
      <path
         style="fill:none;stroke:#000000"
         d="m 83.4564,1625.95 v -27.97"
         id="path992" />
      <path
         style="fill:none;stroke:#000000"
         d="m 83.4564,1597.98 h 6.3437"
         id="path994" />
      <path
         style="fill:none;stroke:#000000"
         d="m 89.8001,1597.98 v 15.99"
         id="path996" />
      <path
         d="m -74.296498,1625.9528 h 18.359492 v -27.9685 h -7.018305 v 10.5571 h -9.517845 v 5.8149 h 9.517845 v 5.7998 h -11.341187 z"
         style="fill:none;stroke:#000000"
         id="path998" />
    </g>
    <text
       xml:space="preserve"
       style="font-style:normal;font-variant:normal;font-weight:bold;font-stretch:normal;font-size:16.9333px;line-height:1.25;font-family:Lato;-inkscape-font-specification:'Lato Bold';stroke-width:0.264583"
       x="43.605572"
       y="-63.122585"
       id="text1191"><tspan
         id="tspan1189"
         style="font-style:normal;font-variant:normal;font-weight:bold;font-stretch:normal;font-family:Lato;-inkscape-font-specification:'Lato Bold';stroke-width:0.264583"
         x="43.605572"
         y="-63.122585" /></text>
    <g
       aria-label="BACK"
       id="text3233"
       style="font-weight:bold;font-size:8.46676px;line-height:1.25;font-family:LATO;-inkscape-font-specification:'LATO Bold';stroke-width:0.264586">
      <path
         d="m 73.79113,-46.349589 q 0.317504,0 0.533406,-0.0762 0.215903,-0.0762 0.342904,-0.203202 0.131235,-0.127001 0.186269,-0.296336 0.05927,-0.169336 0.05927,-0.359838 0,-0.198968 -0.0635,-0.355604 -0.0635,-0.160868 -0.198968,-0.270936 -0.135469,-0.114301 -0.351371,-0.173568 -0.211669,-0.05927 -0.512239,-0.05927 h -1.147246 v 1.794953 z m -1.151479,-4.351914 v 1.769553 h 0.905943 q 0.584207,0 0.880543,-0.211669 0.30057,-0.211669 0.30057,-0.673108 0,-0.478372 -0.270936,-0.681574 -0.270936,-0.203202 -0.846676,-0.203202 z m 0.969444,-0.880543 q 0.60114,0 1.028711,0.114301 0.427572,0.114301 0.698508,0.32597 0.27517,0.211669 0.402171,0.512239 0.127002,0.30057 0.127002,0.677341 0,0.215902 -0.0635,0.414871 -0.0635,0.194736 -0.198969,0.368304 -0.131235,0.169336 -0.33867,0.309037 -0.203203,0.139702 -0.486839,0.237069 1.261547,0.283637 1.261547,1.363149 0,0.389471 -0.148168,0.719674 -0.148168,0.330204 -0.431805,0.571507 -0.283636,0.237069 -0.698508,0.372537 -0.414871,0.135468 -0.948277,0.135468 h -2.311425 v -6.121467 z"
         id="path12655" />
      <path
         d="m 80.213146,-47.772004 -0.745075,-2.036256 q -0.05503,-0.135468 -0.114301,-0.321737 -0.05927,-0.186269 -0.118535,-0.402171 -0.05503,0.215902 -0.114301,0.406404 -0.05927,0.186269 -0.114301,0.325971 l -0.740842,2.027789 z m 2.010856,2.311425 h -0.880543 q -0.148169,0 -0.241303,-0.07197 -0.09313,-0.0762 -0.139702,-0.186269 l -0.457205,-1.248847 h -2.535794 l -0.457205,1.248847 q -0.03387,0.09737 -0.131235,0.177802 -0.09737,0.08043 -0.241303,0.08043 h -0.889009 l 2.408793,-6.121467 h 1.159946 z"
         id="path12657" />
      <path
         d="m 86.880706,-46.904161 q 0.09313,0 0.165102,0.07197 l 0.448739,0.486839 q -0.372538,0.461438 -0.918644,0.706974 -0.541873,0.245536 -1.303881,0.245536 -0.681574,0 -1.22768,-0.232836 -0.541873,-0.232836 -0.92711,-0.647707 -0.385238,-0.414871 -0.592673,-0.990611 -0.203203,-0.575739 -0.203203,-1.257314 0,-0.69004 0.220136,-1.261547 0.220136,-0.575739 0.618074,-0.990611 0.402171,-0.414871 0.956743,-0.643473 0.554573,-0.232836 1.227681,-0.232836 0.668874,0 1.185346,0.220136 0.520706,0.220135 0.884776,0.575739 l -0.381004,0.529173 q -0.03387,0.0508 -0.0889,0.0889 -0.0508,0.0381 -0.143935,0.0381 -0.0635,0 -0.131235,-0.03387 -0.06773,-0.0381 -0.148168,-0.0889 -0.08043,-0.05503 -0.186269,-0.118535 -0.105834,-0.0635 -0.245536,-0.114301 -0.139701,-0.05503 -0.32597,-0.0889 -0.182035,-0.0381 -0.423338,-0.0381 -0.410638,0 -0.753541,0.148168 -0.338671,0.143935 -0.584207,0.423338 -0.245536,0.27517 -0.381004,0.677341 -0.135468,0.397937 -0.135468,0.910176 0,0.516473 0.143935,0.918644 0.148168,0.402171 0.397937,0.677341 0.24977,0.275169 0.58844,0.423338 0.338671,0.143935 0.728142,0.143935 0.232835,0 0.419104,-0.0254 0.190502,-0.0254 0.347137,-0.08043 0.160869,-0.05503 0.30057,-0.139701 0.143935,-0.0889 0.283637,-0.215903 0.04233,-0.0381 0.0889,-0.05927 0.04657,-0.0254 0.09737,-0.0254 z"
         id="path12659" />
      <path
         d="m 89.416491,-49.016618 h 0.266703 q 0.160869,0 0.266703,-0.04233 0.105835,-0.04657 0.182036,-0.143935 l 1.689118,-2.137857 q 0.105835,-0.135468 0.220136,-0.186268 0.118534,-0.05503 0.296336,-0.05503 h 0.982145 l -2.061656,2.544261 q -0.182036,0.232836 -0.376771,0.330204 0.139701,0.0508 0.249769,0.143935 0.114301,0.0889 0.215903,0.237069 l 2.125156,2.865998 h -1.003311 q -0.203202,0 -0.304803,-0.05503 -0.09737,-0.05927 -0.165102,-0.169335 l -1.731452,-2.260625 q -0.08044,-0.114301 -0.186269,-0.160868 -0.105835,-0.04657 -0.304803,-0.04657 h -0.359838 v 2.692429 h -1.138779 v -6.121467 h 1.138779 z"
         id="path12661" />
    </g>
    <text
       xml:space="preserve"
       style="font-weight:bold;font-size:8.46667px;line-height:1.25;font-family:LATO;-inkscape-font-specification:'LATO Bold';stroke-width:0.264583;font-style:normal;font-stretch:normal;font-variant:normal"
       x="57.049828"
       y="-33.749123"
       id="text7175"><tspan
         id="tspan7173"
         style="stroke-width:0.264583;-inkscape-font-specification:'LATO Bold';font-family:LATO;font-weight:bold;font-style:normal;font-stretch:normal;font-variant:normal"
         x="57.049828"
         y="-33.749123" /></text>
    <g
       aria-label="S"
       id="text10663"
       style="font-size:8.46667px;line-height:1.25;font-family:LATO;-inkscape-font-specification:LATO;stroke-width:0.264583">
      <path
         d="m 59.716942,-36.191115 q -0.0381,0.0635 -0.08467,0.09737 -0.04233,0.02963 -0.105834,0.02963 -0.07197,0 -0.169333,-0.07197 -0.09737,-0.07197 -0.245533,-0.156633 -0.143934,-0.0889 -0.351367,-0.160867 -0.2032,-0.07197 -0.4953,-0.07197 -0.275167,0 -0.486834,0.0762 -0.207433,0.07197 -0.351367,0.198967 -0.1397,0.127 -0.211666,0.300567 -0.07197,0.169333 -0.07197,0.3683 0,0.254 0.122767,0.423333 0.127,0.1651 0.3302,0.283634 0.207433,0.118533 0.465667,0.207433 0.262466,0.08467 0.5334,0.1778 0.275167,0.09313 0.5334,0.211667 0.262467,0.1143 0.465667,0.2921 0.207433,0.1778 0.3302,0.436034 0.127,0.258233 0.127,0.635 0,0.397933 -0.135467,0.7493 -0.135466,0.347134 -0.397933,0.605367 -0.258234,0.258234 -0.639234,0.4064 -0.376767,0.148167 -0.859367,0.148167 -0.592667,0 -1.075267,-0.211667 -0.4826,-0.2159 -0.8255,-0.579967 l 0.237067,-0.389466 q 0.03387,-0.04657 0.08043,-0.0762 0.0508,-0.03387 0.110067,-0.03387 0.05503,0 0.122766,0.04657 0.07197,0.04233 0.160867,0.110066 0.0889,0.06773 0.2032,0.148167 0.1143,0.08043 0.258234,0.148167 0.148166,0.06773 0.334433,0.1143 0.186267,0.04233 0.4191,0.04233 0.2921,0 0.5207,-0.08043 0.228601,-0.08043 0.385234,-0.224367 0.160867,-0.148167 0.245533,-0.351367 0.08467,-0.2032 0.08467,-0.452967 0,-0.275166 -0.127,-0.448733 -0.122767,-0.1778 -0.325967,-0.296334 -0.2032,-0.118533 -0.465667,-0.198966 -0.262466,-0.08467 -0.5334,-0.169334 -0.270933,-0.0889 -0.5334,-0.2032 -0.262467,-0.1143 -0.465667,-0.296333 -0.2032,-0.182034 -0.3302,-0.452967 -0.122767,-0.275167 -0.122767,-0.677334 0,-0.321733 0.122767,-0.6223 0.127,-0.300567 0.364067,-0.5334 0.2413,-0.232834 0.588433,-0.372534 0.351367,-0.1397 0.804334,-0.1397 0.508,0 0.922867,0.160867 0.4191,0.160867 0.7366,0.465667 z"
         id="path12640" />
    </g>
    <text
       xml:space="preserve"
       style="font-size:8.46667px;line-height:1.25;font-family:LATO;-inkscape-font-specification:LATO;stroke-width:0.264583"
       x="66.352486"
       y="-31.073015"
       id="text11891"><tspan
         id="tspan11889"
         style="stroke-width:0.264583"
         x="66.352486"
         y="-31.073015">N</tspan></text>
    <g
       aria-label="S"
       id="text10663-0"
       style="font-size:8.46667px;line-height:1.25;font-family:LATO;-inkscape-font-specification:LATO;stroke-width:0.264583">
      <path
         d="m 82.251041,-36.088908 q -0.0381,0.0635 -0.08467,0.09737 -0.04233,0.02963 -0.105833,0.02963 -0.07197,0 -0.169333,-0.07197 -0.09737,-0.07197 -0.245534,-0.156633 -0.143933,-0.0889 -0.351367,-0.160867 -0.2032,-0.07197 -0.4953,-0.07197 -0.275167,0 -0.486833,0.0762 -0.207434,0.07197 -0.351367,0.198967 -0.1397,0.127 -0.211667,0.300567 -0.07197,0.169333 -0.07197,0.3683 0,0.254 0.122767,0.423334 0.127,0.1651 0.3302,0.283633 0.207434,0.118533 0.465667,0.207433 0.262467,0.08467 0.5334,0.177801 0.275167,0.09313 0.533401,0.211666 0.262466,0.1143 0.465666,0.2921 0.207434,0.1778 0.330201,0.436034 0.127,0.258233 0.127,0.635 0,0.397934 -0.135467,0.7493 -0.135467,0.347134 -0.397934,0.605367 -0.258233,0.258234 -0.639233,0.406401 -0.376767,0.148166 -0.859367,0.148166 -0.592667,0 -1.075267,-0.211667 -0.4826,-0.2159 -0.825501,-0.579966 l 0.237067,-0.389467 q 0.03387,-0.04657 0.08043,-0.0762 0.0508,-0.03387 0.110066,-0.03387 0.05503,0 0.122767,0.04657 0.07197,0.04233 0.160867,0.110066 0.0889,0.06773 0.2032,0.148167 0.1143,0.08043 0.258233,0.148167 0.148167,0.06773 0.334434,0.1143 0.186266,0.04233 0.4191,0.04233 0.2921,0 0.5207,-0.08043 0.2286,-0.08043 0.385234,-0.224367 0.160866,-0.148167 0.245533,-0.351367 0.08467,-0.2032 0.08467,-0.452966 0,-0.275167 -0.127,-0.448734 -0.122767,-0.1778 -0.325967,-0.296333 -0.2032,-0.118534 -0.465667,-0.198967 -0.262467,-0.08467 -0.5334,-0.169334 -0.270934,-0.0889 -0.5334,-0.2032 -0.262467,-0.1143 -0.465667,-0.296333 -0.2032,-0.182034 -0.3302,-0.452967 -0.122767,-0.275167 -0.122767,-0.677334 0,-0.321733 0.122767,-0.6223 0.127,-0.300567 0.364066,-0.5334 0.2413,-0.232833 0.588434,-0.372534 0.351367,-0.1397 0.804334,-0.1397 0.508,0 0.922867,0.160867 0.4191,0.160867 0.7366,0.465667 z"
         id="path12646" />
    </g>
    <g
       aria-label="S"
       id="text10663-0-3"
       style="font-size:8.46667px;line-height:1.25;font-family:LATO;-inkscape-font-specification:LATO;stroke-width:0.264583"
       transform="translate(0,18.382328)">
      <path
         d="m 82.251041,-36.088908 q -0.0381,0.0635 -0.08467,0.09737 -0.04233,0.02963 -0.105833,0.02963 -0.07197,0 -0.169333,-0.07197 -0.09737,-0.07197 -0.245534,-0.156633 -0.143933,-0.0889 -0.351367,-0.160867 -0.2032,-0.07197 -0.4953,-0.07197 -0.275167,0 -0.486833,0.0762 -0.207434,0.07197 -0.351367,0.198967 -0.1397,0.127 -0.211667,0.300567 -0.07197,0.169333 -0.07197,0.3683 0,0.254 0.122767,0.423334 0.127,0.1651 0.3302,0.283633 0.207434,0.118533 0.465667,0.207433 0.262467,0.08467 0.5334,0.177801 0.275167,0.09313 0.533401,0.211666 0.262466,0.1143 0.465666,0.2921 0.207434,0.1778 0.330201,0.436034 0.127,0.258233 0.127,0.635 0,0.397934 -0.135467,0.7493 -0.135467,0.347134 -0.397934,0.605367 -0.258233,0.258234 -0.639233,0.406401 -0.376767,0.148166 -0.859367,0.148166 -0.592667,0 -1.075267,-0.211667 -0.4826,-0.2159 -0.825501,-0.579966 l 0.237067,-0.389467 q 0.03387,-0.04657 0.08043,-0.0762 0.0508,-0.03387 0.110066,-0.03387 0.05503,0 0.122767,0.04657 0.07197,0.04233 0.160867,0.110066 0.0889,0.06773 0.2032,0.148167 0.1143,0.08043 0.258233,0.148167 0.148167,0.06773 0.334434,0.1143 0.186266,0.04233 0.4191,0.04233 0.2921,0 0.5207,-0.08043 0.2286,-0.08043 0.385234,-0.224367 0.160866,-0.148167 0.245533,-0.351367 0.08467,-0.2032 0.08467,-0.452966 0,-0.275167 -0.127,-0.448734 -0.122767,-0.1778 -0.325967,-0.296333 -0.2032,-0.118534 -0.465667,-0.198967 -0.262467,-0.08467 -0.5334,-0.169334 -0.270934,-0.0889 -0.5334,-0.2032 -0.262467,-0.1143 -0.465667,-0.296333 -0.2032,-0.182034 -0.3302,-0.452967 -0.122767,-0.275167 -0.122767,-0.677334 0,-0.321733 0.122767,-0.6223 0.127,-0.300567 0.364066,-0.5334 0.2413,-0.232833 0.588434,-0.372534 0.351367,-0.1397 0.804334,-0.1397 0.508,0 0.922867,0.160867 0.4191,0.160867 0.7366,0.465667 z"
         id="path12646-4" />
    </g>
    <g
       aria-label="S"
       id="text10663-0-3-14"
       style="font-size:8.46667px;line-height:1.25;font-family:LATO;-inkscape-font-specification:LATO;stroke-width:0.264583"
       transform="translate(11.352873,18.382328)">
      <path
         d="m 82.251041,-36.088908 q -0.0381,0.0635 -0.08467,0.09737 -0.04233,0.02963 -0.105833,0.02963 -0.07197,0 -0.169333,-0.07197 -0.09737,-0.07197 -0.245534,-0.156633 -0.143933,-0.0889 -0.351367,-0.160867 -0.2032,-0.07197 -0.4953,-0.07197 -0.275167,0 -0.486833,0.0762 -0.207434,0.07197 -0.351367,0.198967 -0.1397,0.127 -0.211667,0.300567 -0.07197,0.169333 -0.07197,0.3683 0,0.254 0.122767,0.423334 0.127,0.1651 0.3302,0.283633 0.207434,0.118533 0.465667,0.207433 0.262467,0.08467 0.5334,0.177801 0.275167,0.09313 0.533401,0.211666 0.262466,0.1143 0.465666,0.2921 0.207434,0.1778 0.330201,0.436034 0.127,0.258233 0.127,0.635 0,0.397934 -0.135467,0.7493 -0.135467,0.347134 -0.397934,0.605367 -0.258233,0.258234 -0.639233,0.406401 -0.376767,0.148166 -0.859367,0.148166 -0.592667,0 -1.075267,-0.211667 -0.4826,-0.2159 -0.825501,-0.579966 l 0.237067,-0.389467 q 0.03387,-0.04657 0.08043,-0.0762 0.0508,-0.03387 0.110066,-0.03387 0.05503,0 0.122767,0.04657 0.07197,0.04233 0.160867,0.110066 0.0889,0.06773 0.2032,0.148167 0.1143,0.08043 0.258233,0.148167 0.148167,0.06773 0.334434,0.1143 0.186266,0.04233 0.4191,0.04233 0.2921,0 0.5207,-0.08043 0.2286,-0.08043 0.385234,-0.224367 0.160866,-0.148167 0.245533,-0.351367 0.08467,-0.2032 0.08467,-0.452966 0,-0.275167 -0.127,-0.448734 -0.122767,-0.1778 -0.325967,-0.296333 -0.2032,-0.118534 -0.465667,-0.198967 -0.262467,-0.08467 -0.5334,-0.169334 -0.270934,-0.0889 -0.5334,-0.2032 -0.262467,-0.1143 -0.465667,-0.296333 -0.2032,-0.182034 -0.3302,-0.452967 -0.122767,-0.275167 -0.122767,-0.677334 0,-0.321733 0.122767,-0.6223 0.127,-0.300567 0.364066,-0.5334 0.2413,-0.232833 0.588434,-0.372534 0.351367,-0.1397 0.804334,-0.1397 0.508,0 0.922867,0.160867 0.4191,0.160867 0.7366,0.465667 z"
         id="path12646-4-0" />
    </g>
    <g
       aria-label="S"
       id="text10663-0-3-1"
       style="font-size:8.46667px;line-height:1.25;font-family:LATO;-inkscape-font-specification:LATO;stroke-width:0.264583"
       transform="translate(-11.047127,18.382328)">
      <path
         d="m 82.251041,-36.088908 q -0.0381,0.0635 -0.08467,0.09737 -0.04233,0.02963 -0.105833,0.02963 -0.07197,0 -0.169333,-0.07197 -0.09737,-0.07197 -0.245534,-0.156633 -0.143933,-0.0889 -0.351367,-0.160867 -0.2032,-0.07197 -0.4953,-0.07197 -0.275167,0 -0.486833,0.0762 -0.207434,0.07197 -0.351367,0.198967 -0.1397,0.127 -0.211667,0.300567 -0.07197,0.169333 -0.07197,0.3683 0,0.254 0.122767,0.423334 0.127,0.1651 0.3302,0.283633 0.207434,0.118533 0.465667,0.207433 0.262467,0.08467 0.5334,0.177801 0.275167,0.09313 0.533401,0.211666 0.262466,0.1143 0.465666,0.2921 0.207434,0.1778 0.330201,0.436034 0.127,0.258233 0.127,0.635 0,0.397934 -0.135467,0.7493 -0.135467,0.347134 -0.397934,0.605367 -0.258233,0.258234 -0.639233,0.406401 -0.376767,0.148166 -0.859367,0.148166 -0.592667,0 -1.075267,-0.211667 -0.4826,-0.2159 -0.825501,-0.579966 l 0.237067,-0.389467 q 0.03387,-0.04657 0.08043,-0.0762 0.0508,-0.03387 0.110066,-0.03387 0.05503,0 0.122767,0.04657 0.07197,0.04233 0.160867,0.110066 0.0889,0.06773 0.2032,0.148167 0.1143,0.08043 0.258233,0.148167 0.148167,0.06773 0.334434,0.1143 0.186266,0.04233 0.4191,0.04233 0.2921,0 0.5207,-0.08043 0.2286,-0.08043 0.385234,-0.224367 0.160866,-0.148167 0.245533,-0.351367 0.08467,-0.2032 0.08467,-0.452966 0,-0.275167 -0.127,-0.448734 -0.122767,-0.1778 -0.325967,-0.296333 -0.2032,-0.118534 -0.465667,-0.198967 -0.262467,-0.08467 -0.5334,-0.169334 -0.270934,-0.0889 -0.5334,-0.2032 -0.262467,-0.1143 -0.465667,-0.296333 -0.2032,-0.182034 -0.3302,-0.452967 -0.122767,-0.275167 -0.122767,-0.677334 0,-0.321733 0.122767,-0.6223 0.127,-0.300567 0.364066,-0.5334 0.2413,-0.232833 0.588434,-0.372534 0.351367,-0.1397 0.804334,-0.1397 0.508,0 0.922867,0.160867 0.4191,0.160867 0.7366,0.465667 z"
         id="path12646-4-9" />
    </g>
    <g
       aria-label="S"
       id="text10663-0-3-14-3"
       style="font-size:8.46667px;line-height:1.25;font-family:LATO;-inkscape-font-specification:LATO;stroke-width:0.264583"
       transform="translate(11.352873,54.982328)">
      <path
         d="m 82.251041,-36.088908 q -0.0381,0.0635 -0.08467,0.09737 -0.04233,0.02963 -0.105833,0.02963 -0.07197,0 -0.169333,-0.07197 -0.09737,-0.07197 -0.245534,-0.156633 -0.143933,-0.0889 -0.351367,-0.160867 -0.2032,-0.07197 -0.4953,-0.07197 -0.275167,0 -0.486833,0.0762 -0.207434,0.07197 -0.351367,0.198967 -0.1397,0.127 -0.211667,0.300567 -0.07197,0.169333 -0.07197,0.3683 0,0.254 0.122767,0.423334 0.127,0.1651 0.3302,0.283633 0.207434,0.118533 0.465667,0.207433 0.262467,0.08467 0.5334,0.177801 0.275167,0.09313 0.533401,0.211666 0.262466,0.1143 0.465666,0.2921 0.207434,0.1778 0.330201,0.436034 0.127,0.258233 0.127,0.635 0,0.397934 -0.135467,0.7493 -0.135467,0.347134 -0.397934,0.605367 -0.258233,0.258234 -0.639233,0.406401 -0.376767,0.148166 -0.859367,0.148166 -0.592667,0 -1.075267,-0.211667 -0.4826,-0.2159 -0.825501,-0.579966 l 0.237067,-0.389467 q 0.03387,-0.04657 0.08043,-0.0762 0.0508,-0.03387 0.110066,-0.03387 0.05503,0 0.122767,0.04657 0.07197,0.04233 0.160867,0.110066 0.0889,0.06773 0.2032,0.148167 0.1143,0.08043 0.258233,0.148167 0.148167,0.06773 0.334434,0.1143 0.186266,0.04233 0.4191,0.04233 0.2921,0 0.5207,-0.08043 0.2286,-0.08043 0.385234,-0.224367 0.160866,-0.148167 0.245533,-0.351367 0.08467,-0.2032 0.08467,-0.452966 0,-0.275167 -0.127,-0.448734 -0.122767,-0.1778 -0.325967,-0.296333 -0.2032,-0.118534 -0.465667,-0.198967 -0.262467,-0.08467 -0.5334,-0.169334 -0.270934,-0.0889 -0.5334,-0.2032 -0.262467,-0.1143 -0.465667,-0.296333 -0.2032,-0.182034 -0.3302,-0.452967 -0.122767,-0.275167 -0.122767,-0.677334 0,-0.321733 0.122767,-0.6223 0.127,-0.300567 0.364066,-0.5334 0.2413,-0.232833 0.588434,-0.372534 0.351367,-0.1397 0.804334,-0.1397 0.508,0 0.922867,0.160867 0.4191,0.160867 0.7366,0.465667 z"
         id="path12646-4-0-9" />
    </g>
    <g
       aria-label="S"
       id="text10663-0-3-14-3-9"
       style="font-size:8.46667px;line-height:1.25;font-family:LATO;-inkscape-font-specification:LATO;stroke-width:0.264583"
       transform="translate(22.452873,73.182328)">
      <path
         d="m 82.251041,-36.088908 q -0.0381,0.0635 -0.08467,0.09737 -0.04233,0.02963 -0.105833,0.02963 -0.07197,0 -0.169333,-0.07197 -0.09737,-0.07197 -0.245534,-0.156633 -0.143933,-0.0889 -0.351367,-0.160867 -0.2032,-0.07197 -0.4953,-0.07197 -0.275167,0 -0.486833,0.0762 -0.207434,0.07197 -0.351367,0.198967 -0.1397,0.127 -0.211667,0.300567 -0.07197,0.169333 -0.07197,0.3683 0,0.254 0.122767,0.423334 0.127,0.1651 0.3302,0.283633 0.207434,0.118533 0.465667,0.207433 0.262467,0.08467 0.5334,0.177801 0.275167,0.09313 0.533401,0.211666 0.262466,0.1143 0.465666,0.2921 0.207434,0.1778 0.330201,0.436034 0.127,0.258233 0.127,0.635 0,0.397934 -0.135467,0.7493 -0.135467,0.347134 -0.397934,0.605367 -0.258233,0.258234 -0.639233,0.406401 -0.376767,0.148166 -0.859367,0.148166 -0.592667,0 -1.075267,-0.211667 -0.4826,-0.2159 -0.825501,-0.579966 l 0.237067,-0.389467 q 0.03387,-0.04657 0.08043,-0.0762 0.0508,-0.03387 0.110066,-0.03387 0.05503,0 0.122767,0.04657 0.07197,0.04233 0.160867,0.110066 0.0889,0.06773 0.2032,0.148167 0.1143,0.08043 0.258233,0.148167 0.148167,0.06773 0.334434,0.1143 0.186266,0.04233 0.4191,0.04233 0.2921,0 0.5207,-0.08043 0.2286,-0.08043 0.385234,-0.224367 0.160866,-0.148167 0.245533,-0.351367 0.08467,-0.2032 0.08467,-0.452966 0,-0.275167 -0.127,-0.448734 -0.122767,-0.1778 -0.325967,-0.296333 -0.2032,-0.118534 -0.465667,-0.198967 -0.262467,-0.08467 -0.5334,-0.169334 -0.270934,-0.0889 -0.5334,-0.2032 -0.262467,-0.1143 -0.465667,-0.296333 -0.2032,-0.182034 -0.3302,-0.452967 -0.122767,-0.275167 -0.122767,-0.677334 0,-0.321733 0.122767,-0.6223 0.127,-0.300567 0.364066,-0.5334 0.2413,-0.232833 0.588434,-0.372534 0.351367,-0.1397 0.804334,-0.1397 0.508,0 0.922867,0.160867 0.4191,0.160867 0.7366,0.465667 z"
         id="path12646-4-0-9-3" />
    </g>
    <g
       aria-label="S"
       id="text10663-0-3-1-2"
       style="font-size:8.46667px;line-height:1.25;font-family:LATO;-inkscape-font-specification:LATO;stroke-width:0.264583"
       transform="translate(-11.047127,54.982328)">
      <path
         d="m 82.251041,-36.088908 q -0.0381,0.0635 -0.08467,0.09737 -0.04233,0.02963 -0.105833,0.02963 -0.07197,0 -0.169333,-0.07197 -0.09737,-0.07197 -0.245534,-0.156633 -0.143933,-0.0889 -0.351367,-0.160867 -0.2032,-0.07197 -0.4953,-0.07197 -0.275167,0 -0.486833,0.0762 -0.207434,0.07197 -0.351367,0.198967 -0.1397,0.127 -0.211667,0.300567 -0.07197,0.169333 -0.07197,0.3683 0,0.254 0.122767,0.423334 0.127,0.1651 0.3302,0.283633 0.207434,0.118533 0.465667,0.207433 0.262467,0.08467 0.5334,0.177801 0.275167,0.09313 0.533401,0.211666 0.262466,0.1143 0.465666,0.2921 0.207434,0.1778 0.330201,0.436034 0.127,0.258233 0.127,0.635 0,0.397934 -0.135467,0.7493 -0.135467,0.347134 -0.397934,0.605367 -0.258233,0.258234 -0.639233,0.406401 -0.376767,0.148166 -0.859367,0.148166 -0.592667,0 -1.075267,-0.211667 -0.4826,-0.2159 -0.825501,-0.579966 l 0.237067,-0.389467 q 0.03387,-0.04657 0.08043,-0.0762 0.0508,-0.03387 0.110066,-0.03387 0.05503,0 0.122767,0.04657 0.07197,0.04233 0.160867,0.110066 0.0889,0.06773 0.2032,0.148167 0.1143,0.08043 0.258233,0.148167 0.148167,0.06773 0.334434,0.1143 0.186266,0.04233 0.4191,0.04233 0.2921,0 0.5207,-0.08043 0.2286,-0.08043 0.385234,-0.224367 0.160866,-0.148167 0.245533,-0.351367 0.08467,-0.2032 0.08467,-0.452966 0,-0.275167 -0.127,-0.448734 -0.122767,-0.1778 -0.325967,-0.296333 -0.2032,-0.118534 -0.465667,-0.198967 -0.262467,-0.08467 -0.5334,-0.169334 -0.270934,-0.0889 -0.5334,-0.2032 -0.262467,-0.1143 -0.465667,-0.296333 -0.2032,-0.182034 -0.3302,-0.452967 -0.122767,-0.275167 -0.122767,-0.677334 0,-0.321733 0.122767,-0.6223 0.127,-0.300567 0.364066,-0.5334 0.2413,-0.232833 0.588434,-0.372534 0.351367,-0.1397 0.804334,-0.1397 0.508,0 0.922867,0.160867 0.4191,0.160867 0.7366,0.465667 z"
         id="path12646-4-9-3" />
    </g>
    <g
       aria-label="S"
       id="text10663-0-3-1-2-2"
       style="font-size:8.46667px;line-height:1.25;font-family:LATO;-inkscape-font-specification:LATO;stroke-width:0.264583"
       transform="translate(-22.415817,73.182328)">
      <path
         d="m 82.251041,-36.088908 q -0.0381,0.0635 -0.08467,0.09737 -0.04233,0.02963 -0.105833,0.02963 -0.07197,0 -0.169333,-0.07197 -0.09737,-0.07197 -0.245534,-0.156633 -0.143933,-0.0889 -0.351367,-0.160867 -0.2032,-0.07197 -0.4953,-0.07197 -0.275167,0 -0.486833,0.0762 -0.207434,0.07197 -0.351367,0.198967 -0.1397,0.127 -0.211667,0.300567 -0.07197,0.169333 -0.07197,0.3683 0,0.254 0.122767,0.423334 0.127,0.1651 0.3302,0.283633 0.207434,0.118533 0.465667,0.207433 0.262467,0.08467 0.5334,0.177801 0.275167,0.09313 0.533401,0.211666 0.262466,0.1143 0.465666,0.2921 0.207434,0.1778 0.330201,0.436034 0.127,0.258233 0.127,0.635 0,0.397934 -0.135467,0.7493 -0.135467,0.347134 -0.397934,0.605367 -0.258233,0.258234 -0.639233,0.406401 -0.376767,0.148166 -0.859367,0.148166 -0.592667,0 -1.075267,-0.211667 -0.4826,-0.2159 -0.825501,-0.579966 l 0.237067,-0.389467 q 0.03387,-0.04657 0.08043,-0.0762 0.0508,-0.03387 0.110066,-0.03387 0.05503,0 0.122767,0.04657 0.07197,0.04233 0.160867,0.110066 0.0889,0.06773 0.2032,0.148167 0.1143,0.08043 0.258233,0.148167 0.148167,0.06773 0.334434,0.1143 0.186266,0.04233 0.4191,0.04233 0.2921,0 0.5207,-0.08043 0.2286,-0.08043 0.385234,-0.224367 0.160866,-0.148167 0.245533,-0.351367 0.08467,-0.2032 0.08467,-0.452966 0,-0.275167 -0.127,-0.448734 -0.122767,-0.1778 -0.325967,-0.296333 -0.2032,-0.118534 -0.465667,-0.198967 -0.262467,-0.08467 -0.5334,-0.169334 -0.270934,-0.0889 -0.5334,-0.2032 -0.262467,-0.1143 -0.465667,-0.296333 -0.2032,-0.182034 -0.3302,-0.452967 -0.122767,-0.275167 -0.122767,-0.677334 0,-0.321733 0.122767,-0.6223 0.127,-0.300567 0.364066,-0.5334 0.2413,-0.232833 0.588434,-0.372534 0.351367,-0.1397 0.804334,-0.1397 0.508,0 0.922867,0.160867 0.4191,0.160867 0.7366,0.465667 z"
         id="path12646-4-9-3-5" />
    </g>
    <g
       aria-label="S"
       id="text10663-0-3-1-2-2-5"
       style="font-size:8.46667px;line-height:1.25;font-family:LATO;-inkscape-font-specification:LATO;stroke-width:0.264583"
       transform="translate(-22.415817,91.482328)">
      <path
         d="m 82.251041,-36.088908 q -0.0381,0.0635 -0.08467,0.09737 -0.04233,0.02963 -0.105833,0.02963 -0.07197,0 -0.169333,-0.07197 -0.09737,-0.07197 -0.245534,-0.156633 -0.143933,-0.0889 -0.351367,-0.160867 -0.2032,-0.07197 -0.4953,-0.07197 -0.275167,0 -0.486833,0.0762 -0.207434,0.07197 -0.351367,0.198967 -0.1397,0.127 -0.211667,0.300567 -0.07197,0.169333 -0.07197,0.3683 0,0.254 0.122767,0.423334 0.127,0.1651 0.3302,0.283633 0.207434,0.118533 0.465667,0.207433 0.262467,0.08467 0.5334,0.177801 0.275167,0.09313 0.533401,0.211666 0.262466,0.1143 0.465666,0.2921 0.207434,0.1778 0.330201,0.436034 0.127,0.258233 0.127,0.635 0,0.397934 -0.135467,0.7493 -0.135467,0.347134 -0.397934,0.605367 -0.258233,0.258234 -0.639233,0.406401 -0.376767,0.148166 -0.859367,0.148166 -0.592667,0 -1.075267,-0.211667 -0.4826,-0.2159 -0.825501,-0.579966 l 0.237067,-0.389467 q 0.03387,-0.04657 0.08043,-0.0762 0.0508,-0.03387 0.110066,-0.03387 0.05503,0 0.122767,0.04657 0.07197,0.04233 0.160867,0.110066 0.0889,0.06773 0.2032,0.148167 0.1143,0.08043 0.258233,0.148167 0.148167,0.06773 0.334434,0.1143 0.186266,0.04233 0.4191,0.04233 0.2921,0 0.5207,-0.08043 0.2286,-0.08043 0.385234,-0.224367 0.160866,-0.148167 0.245533,-0.351367 0.08467,-0.2032 0.08467,-0.452966 0,-0.275167 -0.127,-0.448734 -0.122767,-0.1778 -0.325967,-0.296333 -0.2032,-0.118534 -0.465667,-0.198967 -0.262467,-0.08467 -0.5334,-0.169334 -0.270934,-0.0889 -0.5334,-0.2032 -0.262467,-0.1143 -0.465667,-0.296333 -0.2032,-0.182034 -0.3302,-0.452967 -0.122767,-0.275167 -0.122767,-0.677334 0,-0.321733 0.122767,-0.6223 0.127,-0.300567 0.364066,-0.5334 0.2413,-0.232833 0.588434,-0.372534 0.351367,-0.1397 0.804334,-0.1397 0.508,0 0.922867,0.160867 0.4191,0.160867 0.7366,0.465667 z"
         id="path12646-4-9-3-5-7" />
    </g>
    <g
       aria-label="S"
       id="text10663-0-3-1-2-2-5-6"
       style="font-size:8.46667px;line-height:1.25;font-family:LATO;-inkscape-font-specification:LATO;stroke-width:0.264583"
       transform="translate(-11.047127,91.482328)">
      <path
         d="m 82.251041,-36.088908 q -0.0381,0.0635 -0.08467,0.09737 -0.04233,0.02963 -0.105833,0.02963 -0.07197,0 -0.169333,-0.07197 -0.09737,-0.07197 -0.245534,-0.156633 -0.143933,-0.0889 -0.351367,-0.160867 -0.2032,-0.07197 -0.4953,-0.07197 -0.275167,0 -0.486833,0.0762 -0.207434,0.07197 -0.351367,0.198967 -0.1397,0.127 -0.211667,0.300567 -0.07197,0.169333 -0.07197,0.3683 0,0.254 0.122767,0.423334 0.127,0.1651 0.3302,0.283633 0.207434,0.118533 0.465667,0.207433 0.262467,0.08467 0.5334,0.177801 0.275167,0.09313 0.533401,0.211666 0.262466,0.1143 0.465666,0.2921 0.207434,0.1778 0.330201,0.436034 0.127,0.258233 0.127,0.635 0,0.397934 -0.135467,0.7493 -0.135467,0.347134 -0.397934,0.605367 -0.258233,0.258234 -0.639233,0.406401 -0.376767,0.148166 -0.859367,0.148166 -0.592667,0 -1.075267,-0.211667 -0.4826,-0.2159 -0.825501,-0.579966 l 0.237067,-0.389467 q 0.03387,-0.04657 0.08043,-0.0762 0.0508,-0.03387 0.110066,-0.03387 0.05503,0 0.122767,0.04657 0.07197,0.04233 0.160867,0.110066 0.0889,0.06773 0.2032,0.148167 0.1143,0.08043 0.258233,0.148167 0.148167,0.06773 0.334434,0.1143 0.186266,0.04233 0.4191,0.04233 0.2921,0 0.5207,-0.08043 0.2286,-0.08043 0.385234,-0.224367 0.160866,-0.148167 0.245533,-0.351367 0.08467,-0.2032 0.08467,-0.452966 0,-0.275167 -0.127,-0.448734 -0.122767,-0.1778 -0.325967,-0.296333 -0.2032,-0.118534 -0.465667,-0.198967 -0.262467,-0.08467 -0.5334,-0.169334 -0.270934,-0.0889 -0.5334,-0.2032 -0.262467,-0.1143 -0.465667,-0.296333 -0.2032,-0.182034 -0.3302,-0.452967 -0.122767,-0.275167 -0.122767,-0.677334 0,-0.321733 0.122767,-0.6223 0.127,-0.300567 0.364066,-0.5334 0.2413,-0.232833 0.588434,-0.372534 0.351367,-0.1397 0.804334,-0.1397 0.508,0 0.922867,0.160867 0.4191,0.160867 0.7366,0.465667 z"
         id="path12646-4-9-3-5-7-3" />
    </g>
    <g
       aria-label="S"
       id="text10663-0-3-1-2-2-5-0"
       style="font-size:8.46667px;line-height:1.25;font-family:LATO;-inkscape-font-specification:LATO;stroke-width:0.264583"
       transform="translate(11.104814,91.482328)">
      <path
         d="m 82.251041,-36.088908 q -0.0381,0.0635 -0.08467,0.09737 -0.04233,0.02963 -0.105833,0.02963 -0.07197,0 -0.169333,-0.07197 -0.09737,-0.07197 -0.245534,-0.156633 -0.143933,-0.0889 -0.351367,-0.160867 -0.2032,-0.07197 -0.4953,-0.07197 -0.275167,0 -0.486833,0.0762 -0.207434,0.07197 -0.351367,0.198967 -0.1397,0.127 -0.211667,0.300567 -0.07197,0.169333 -0.07197,0.3683 0,0.254 0.122767,0.423334 0.127,0.1651 0.3302,0.283633 0.207434,0.118533 0.465667,0.207433 0.262467,0.08467 0.5334,0.177801 0.275167,0.09313 0.533401,0.211666 0.262466,0.1143 0.465666,0.2921 0.207434,0.1778 0.330201,0.436034 0.127,0.258233 0.127,0.635 0,0.397934 -0.135467,0.7493 -0.135467,0.347134 -0.397934,0.605367 -0.258233,0.258234 -0.639233,0.406401 -0.376767,0.148166 -0.859367,0.148166 -0.592667,0 -1.075267,-0.211667 -0.4826,-0.2159 -0.825501,-0.579966 l 0.237067,-0.389467 q 0.03387,-0.04657 0.08043,-0.0762 0.0508,-0.03387 0.110066,-0.03387 0.05503,0 0.122767,0.04657 0.07197,0.04233 0.160867,0.110066 0.0889,0.06773 0.2032,0.148167 0.1143,0.08043 0.258233,0.148167 0.148167,0.06773 0.334434,0.1143 0.186266,0.04233 0.4191,0.04233 0.2921,0 0.5207,-0.08043 0.2286,-0.08043 0.385234,-0.224367 0.160866,-0.148167 0.245533,-0.351367 0.08467,-0.2032 0.08467,-0.452966 0,-0.275167 -0.127,-0.448734 -0.122767,-0.1778 -0.325967,-0.296333 -0.2032,-0.118534 -0.465667,-0.198967 -0.262467,-0.08467 -0.5334,-0.169334 -0.270934,-0.0889 -0.5334,-0.2032 -0.262467,-0.1143 -0.465667,-0.296333 -0.2032,-0.182034 -0.3302,-0.452967 -0.122767,-0.275167 -0.122767,-0.677334 0,-0.321733 0.122767,-0.6223 0.127,-0.300567 0.364066,-0.5334 0.2413,-0.232833 0.588434,-0.372534 0.351367,-0.1397 0.804334,-0.1397 0.508,0 0.922867,0.160867 0.4191,0.160867 0.7366,0.465667 z"
         id="path12646-4-9-3-5-7-1" />
    </g>
    <g
       aria-label="S"
       id="text10663-0-3-1-2-2-5-6-3"
       style="font-size:8.46667px;line-height:1.25;font-family:LATO;-inkscape-font-specification:LATO;stroke-width:0.264583"
       transform="translate(22.473504,91.482328)">
      <path
         d="m 82.251041,-36.088908 q -0.0381,0.0635 -0.08467,0.09737 -0.04233,0.02963 -0.105833,0.02963 -0.07197,0 -0.169333,-0.07197 -0.09737,-0.07197 -0.245534,-0.156633 -0.143933,-0.0889 -0.351367,-0.160867 -0.2032,-0.07197 -0.4953,-0.07197 -0.275167,0 -0.486833,0.0762 -0.207434,0.07197 -0.351367,0.198967 -0.1397,0.127 -0.211667,0.300567 -0.07197,0.169333 -0.07197,0.3683 0,0.254 0.122767,0.423334 0.127,0.1651 0.3302,0.283633 0.207434,0.118533 0.465667,0.207433 0.262467,0.08467 0.5334,0.177801 0.275167,0.09313 0.533401,0.211666 0.262466,0.1143 0.465666,0.2921 0.207434,0.1778 0.330201,0.436034 0.127,0.258233 0.127,0.635 0,0.397934 -0.135467,0.7493 -0.135467,0.347134 -0.397934,0.605367 -0.258233,0.258234 -0.639233,0.406401 -0.376767,0.148166 -0.859367,0.148166 -0.592667,0 -1.075267,-0.211667 -0.4826,-0.2159 -0.825501,-0.579966 l 0.237067,-0.389467 q 0.03387,-0.04657 0.08043,-0.0762 0.0508,-0.03387 0.110066,-0.03387 0.05503,0 0.122767,0.04657 0.07197,0.04233 0.160867,0.110066 0.0889,0.06773 0.2032,0.148167 0.1143,0.08043 0.258233,0.148167 0.148167,0.06773 0.334434,0.1143 0.186266,0.04233 0.4191,0.04233 0.2921,0 0.5207,-0.08043 0.2286,-0.08043 0.385234,-0.224367 0.160866,-0.148167 0.245533,-0.351367 0.08467,-0.2032 0.08467,-0.452966 0,-0.275167 -0.127,-0.448734 -0.122767,-0.1778 -0.325967,-0.296333 -0.2032,-0.118534 -0.465667,-0.198967 -0.262467,-0.08467 -0.5334,-0.169334 -0.270934,-0.0889 -0.5334,-0.2032 -0.262467,-0.1143 -0.465667,-0.296333 -0.2032,-0.182034 -0.3302,-0.452967 -0.122767,-0.275167 -0.122767,-0.677334 0,-0.321733 0.122767,-0.6223 0.127,-0.300567 0.364066,-0.5334 0.2413,-0.232833 0.588434,-0.372534 0.351367,-0.1397 0.804334,-0.1397 0.508,0 0.922867,0.160867 0.4191,0.160867 0.7366,0.465667 z"
         id="path12646-4-9-3-5-7-3-7" />
    </g>
    <g
       aria-label="N"
       id="text11891-7"
       style="font-size:8.46667px;line-height:1.25;font-family:LATO;-inkscape-font-specification:LATO;stroke-width:0.264583">
      <path
         d="m 94.576184,-37.037177 v 6.066369 H 94.16555 q -0.09737,0 -0.1651,-0.03387 -0.0635,-0.03387 -0.127,-0.1143 l -3.509435,-4.572002 q 0.0085,0.105834 0.0127,0.207434 0.0042,0.1016 0.0042,0.1905 v 4.322235 h -0.719667 v -6.066369 h 0.423333 q 0.05503,0 0.09313,0.0085 0.0381,0.0042 0.06773,0.02117 0.02963,0.0127 0.05927,0.04233 0.02963,0.0254 0.0635,0.06773 l 3.509434,4.567768 q -0.0085,-0.110066 -0.01693,-0.211666 -0.0042,-0.105834 -0.0042,-0.198967 v -4.296835 z"
         id="path12649" />
    </g>
    <g
       aria-label="S"
       id="text10663-8"
       style="font-size:8.46667px;line-height:1.25;font-family:LATO;-inkscape-font-specification:LATO;stroke-width:0.264583">
      <path
         d="m 104.87052,-36.21634 q -0.0381,0.0635 -0.0847,0.09737 -0.0423,0.02963 -0.10583,0.02963 -0.072,0 -0.16934,-0.07197 -0.0974,-0.07197 -0.24553,-0.156633 -0.14393,-0.0889 -0.35137,-0.160867 -0.2032,-0.07197 -0.4953,-0.07197 -0.27516,0 -0.48683,0.0762 -0.20743,0.07197 -0.35137,0.198966 -0.1397,0.127 -0.21166,0.300567 -0.072,0.169333 -0.072,0.3683 0,0.254 0.12277,0.423334 0.127,0.1651 0.3302,0.283633 0.20743,0.118534 0.46566,0.207434 0.26247,0.08467 0.5334,0.1778 0.27517,0.09313 0.5334,0.211666 0.26247,0.1143 0.46567,0.292101 0.20743,0.1778 0.3302,0.436033 0.127,0.258233 0.127,0.635 0,0.397934 -0.13547,0.749301 -0.13546,0.347133 -0.39793,0.605366 -0.25823,0.258234 -0.63923,0.406401 -0.37677,0.148166 -0.85937,0.148166 -0.59267,0 -1.07527,-0.211666 -0.4826,-0.2159 -0.8255,-0.579967 l 0.23707,-0.389467 q 0.0339,-0.04657 0.0804,-0.0762 0.0508,-0.03387 0.11007,-0.03387 0.055,0 0.12277,0.04657 0.072,0.04233 0.16086,0.110067 0.0889,0.06773 0.2032,0.148166 0.1143,0.08043 0.25824,0.148167 0.14816,0.06773 0.33443,0.1143 0.18627,0.04233 0.4191,0.04233 0.2921,0 0.5207,-0.08043 0.2286,-0.08043 0.38523,-0.224367 0.16087,-0.148166 0.24554,-0.351366 0.0847,-0.203201 0.0847,-0.452967 0,-0.275167 -0.127,-0.448734 -0.12276,-0.1778 -0.32596,-0.296333 -0.2032,-0.118534 -0.46567,-0.198967 -0.26247,-0.08467 -0.5334,-0.169333 -0.27093,-0.0889 -0.5334,-0.203201 -0.26247,-0.1143 -0.46567,-0.296333 -0.2032,-0.182033 -0.3302,-0.452967 -0.12276,-0.275167 -0.12276,-0.677333 0,-0.321734 0.12276,-0.622301 0.127,-0.300566 0.36407,-0.5334 0.2413,-0.232833 0.58843,-0.372533 0.35137,-0.1397 0.80434,-0.1397 0.508,0 0.92286,0.160866 0.4191,0.160867 0.7366,0.465667 z"
         id="path12652" />
    </g>
    <g
       aria-label="N"
       id="text12611"
       style="font-size:8.46667px;line-height:1.25;font-family:LATO;-inkscape-font-specification:LATO;stroke-width:0.264583">
      <path
         d="m 72.042088,-37.139384 v 6.066369 h -0.410634 q -0.09737,0 -0.1651,-0.03387 -0.0635,-0.03387 -0.127,-0.1143 l -3.509434,-4.572002 q 0.0085,0.105834 0.0127,0.207434 0.0042,0.1016 0.0042,0.1905 v 4.322235 h -0.719667 v -6.066369 h 0.423333 q 0.05503,0 0.09313,0.0085 0.0381,0.0042 0.06773,0.02117 0.02963,0.0127 0.05927,0.04233 0.02963,0.0254 0.0635,0.06773 l 3.509435,4.567768 q -0.0085,-0.110066 -0.01693,-0.211667 -0.0042,-0.105833 -0.0042,-0.198966 v -4.296835 z"
         id="path12643" />
    </g>
    <g
       aria-label="N"
       id="text12611-2"
       style="font-size:8.46667px;line-height:1.25;font-family:LATO;-inkscape-font-specification:LATO;stroke-width:0.264583"
       transform="translate(-11.381353,18.471174)">
      <path
         d="m 72.042088,-37.139384 v 6.066369 h -0.410634 q -0.09737,0 -0.1651,-0.03387 -0.0635,-0.03387 -0.127,-0.1143 l -3.509434,-4.572002 q 0.0085,0.105834 0.0127,0.207434 0.0042,0.1016 0.0042,0.1905 v 4.322235 h -0.719667 v -6.066369 h 0.423333 q 0.05503,0 0.09313,0.0085 0.0381,0.0042 0.06773,0.02117 0.02963,0.0127 0.05927,0.04233 0.02963,0.0254 0.0635,0.06773 l 3.509435,4.567768 q -0.0085,-0.110066 -0.01693,-0.211667 -0.0042,-0.105833 -0.0042,-0.198966 v -4.296835 z"
         id="path12643-0" />
    </g>
    <g
       aria-label="N"
       id="text12611-2-9"
       style="font-size:8.46667px;line-height:1.25;font-family:LATO;-inkscape-font-specification:LATO;stroke-width:0.264583"
       transform="translate(33.77842,18.471174)">
      <path
         d="m 72.042088,-37.139384 v 6.066369 h -0.410634 q -0.09737,0 -0.1651,-0.03387 -0.0635,-0.03387 -0.127,-0.1143 l -3.509434,-4.572002 q 0.0085,0.105834 0.0127,0.207434 0.0042,0.1016 0.0042,0.1905 v 4.322235 h -0.719667 v -6.066369 h 0.423333 q 0.05503,0 0.09313,0.0085 0.0381,0.0042 0.06773,0.02117 0.02963,0.0127 0.05927,0.04233 0.02963,0.0254 0.0635,0.06773 l 3.509435,4.567768 q -0.0085,-0.110066 -0.01693,-0.211667 -0.0042,-0.105833 -0.0042,-0.198966 v -4.296835 z"
         id="path12643-0-6" />
    </g>
    <g
       aria-label="S"
       id="text10663-5"
       style="font-size:8.46667px;line-height:1.25;font-family:LATO;-inkscape-font-specification:LATO;stroke-width:0.264583"
       transform="translate(-0.06970748,109.5322)">
      <path
         d="m 59.716942,-36.191115 q -0.0381,0.0635 -0.08467,0.09737 -0.04233,0.02963 -0.105834,0.02963 -0.07197,0 -0.169333,-0.07197 -0.09737,-0.07197 -0.245533,-0.156633 -0.143934,-0.0889 -0.351367,-0.160867 -0.2032,-0.07197 -0.4953,-0.07197 -0.275167,0 -0.486834,0.0762 -0.207433,0.07197 -0.351367,0.198967 -0.1397,0.127 -0.211666,0.300567 -0.07197,0.169333 -0.07197,0.3683 0,0.254 0.122767,0.423333 0.127,0.1651 0.3302,0.283634 0.207433,0.118533 0.465667,0.207433 0.262466,0.08467 0.5334,0.1778 0.275167,0.09313 0.5334,0.211667 0.262467,0.1143 0.465667,0.2921 0.207433,0.1778 0.3302,0.436034 0.127,0.258233 0.127,0.635 0,0.397933 -0.135467,0.7493 -0.135466,0.347134 -0.397933,0.605367 -0.258234,0.258234 -0.639234,0.4064 -0.376767,0.148167 -0.859367,0.148167 -0.592667,0 -1.075267,-0.211667 -0.4826,-0.2159 -0.8255,-0.579967 l 0.237067,-0.389466 q 0.03387,-0.04657 0.08043,-0.0762 0.0508,-0.03387 0.110067,-0.03387 0.05503,0 0.122766,0.04657 0.07197,0.04233 0.160867,0.110066 0.0889,0.06773 0.2032,0.148167 0.1143,0.08043 0.258234,0.148167 0.148166,0.06773 0.334433,0.1143 0.186267,0.04233 0.4191,0.04233 0.2921,0 0.5207,-0.08043 0.228601,-0.08043 0.385234,-0.224367 0.160867,-0.148167 0.245533,-0.351367 0.08467,-0.2032 0.08467,-0.452967 0,-0.275166 -0.127,-0.448733 -0.122767,-0.1778 -0.325967,-0.296334 -0.2032,-0.118533 -0.465667,-0.198966 -0.262466,-0.08467 -0.5334,-0.169334 -0.270933,-0.0889 -0.5334,-0.2032 -0.262467,-0.1143 -0.465667,-0.296333 -0.2032,-0.182034 -0.3302,-0.452967 -0.122767,-0.275167 -0.122767,-0.677334 0,-0.321733 0.122767,-0.6223 0.127,-0.300567 0.364067,-0.5334 0.2413,-0.232834 0.588433,-0.372534 0.351367,-0.1397 0.804334,-0.1397 0.508,0 0.922867,0.160867 0.4191,0.160867 0.7366,0.465667 z"
         id="path12640-0" />
    </g>
    <text
       xml:space="preserve"
       style="font-size:8.46667px;line-height:1.25;font-family:LATO;-inkscape-font-specification:LATO;stroke-width:0.264583"
       x="66.282776"
       y="78.45919"
       id="text11891-1"><tspan
         id="tspan11889-4"
         style="stroke-width:0.264583"
         x="66.282776"
         y="78.45919">N</tspan></text>
    <g
       aria-label="S"
       id="text10663-0-2"
       style="font-size:8.46667px;line-height:1.25;font-family:LATO;-inkscape-font-specification:LATO;stroke-width:0.264583"
       transform="translate(-0.06970748,109.5322)">
      <path
         d="m 82.251041,-36.088908 q -0.0381,0.0635 -0.08467,0.09737 -0.04233,0.02963 -0.105833,0.02963 -0.07197,0 -0.169333,-0.07197 -0.09737,-0.07197 -0.245534,-0.156633 -0.143933,-0.0889 -0.351367,-0.160867 -0.2032,-0.07197 -0.4953,-0.07197 -0.275167,0 -0.486833,0.0762 -0.207434,0.07197 -0.351367,0.198967 -0.1397,0.127 -0.211667,0.300567 -0.07197,0.169333 -0.07197,0.3683 0,0.254 0.122767,0.423334 0.127,0.1651 0.3302,0.283633 0.207434,0.118533 0.465667,0.207433 0.262467,0.08467 0.5334,0.177801 0.275167,0.09313 0.533401,0.211666 0.262466,0.1143 0.465666,0.2921 0.207434,0.1778 0.330201,0.436034 0.127,0.258233 0.127,0.635 0,0.397934 -0.135467,0.7493 -0.135467,0.347134 -0.397934,0.605367 -0.258233,0.258234 -0.639233,0.406401 -0.376767,0.148166 -0.859367,0.148166 -0.592667,0 -1.075267,-0.211667 -0.4826,-0.2159 -0.825501,-0.579966 l 0.237067,-0.389467 q 0.03387,-0.04657 0.08043,-0.0762 0.0508,-0.03387 0.110066,-0.03387 0.05503,0 0.122767,0.04657 0.07197,0.04233 0.160867,0.110066 0.0889,0.06773 0.2032,0.148167 0.1143,0.08043 0.258233,0.148167 0.148167,0.06773 0.334434,0.1143 0.186266,0.04233 0.4191,0.04233 0.2921,0 0.5207,-0.08043 0.2286,-0.08043 0.385234,-0.224367 0.160866,-0.148167 0.245533,-0.351367 0.08467,-0.2032 0.08467,-0.452966 0,-0.275167 -0.127,-0.448734 -0.122767,-0.1778 -0.325967,-0.296333 -0.2032,-0.118534 -0.465667,-0.198967 -0.262467,-0.08467 -0.5334,-0.169334 -0.270934,-0.0889 -0.5334,-0.2032 -0.262467,-0.1143 -0.465667,-0.296333 -0.2032,-0.182034 -0.3302,-0.452967 -0.122767,-0.275167 -0.122767,-0.677334 0,-0.321733 0.122767,-0.6223 0.127,-0.300567 0.364066,-0.5334 0.2413,-0.232833 0.588434,-0.372534 0.351367,-0.1397 0.804334,-0.1397 0.508,0 0.922867,0.160867 0.4191,0.160867 0.7366,0.465667 z"
         id="path12646-6" />
    </g>
    <g
       aria-label="S"
       id="text10663-0-3-9"
       style="font-size:8.46667px;line-height:1.25;font-family:LATO;-inkscape-font-specification:LATO;stroke-width:0.264583"
       transform="translate(-0.06970748,127.91453)">
      <path
         d="m 82.251041,-36.088908 q -0.0381,0.0635 -0.08467,0.09737 -0.04233,0.02963 -0.105833,0.02963 -0.07197,0 -0.169333,-0.07197 -0.09737,-0.07197 -0.245534,-0.156633 -0.143933,-0.0889 -0.351367,-0.160867 -0.2032,-0.07197 -0.4953,-0.07197 -0.275167,0 -0.486833,0.0762 -0.207434,0.07197 -0.351367,0.198967 -0.1397,0.127 -0.211667,0.300567 -0.07197,0.169333 -0.07197,0.3683 0,0.254 0.122767,0.423334 0.127,0.1651 0.3302,0.283633 0.207434,0.118533 0.465667,0.207433 0.262467,0.08467 0.5334,0.177801 0.275167,0.09313 0.533401,0.211666 0.262466,0.1143 0.465666,0.2921 0.207434,0.1778 0.330201,0.436034 0.127,0.258233 0.127,0.635 0,0.397934 -0.135467,0.7493 -0.135467,0.347134 -0.397934,0.605367 -0.258233,0.258234 -0.639233,0.406401 -0.376767,0.148166 -0.859367,0.148166 -0.592667,0 -1.075267,-0.211667 -0.4826,-0.2159 -0.825501,-0.579966 l 0.237067,-0.389467 q 0.03387,-0.04657 0.08043,-0.0762 0.0508,-0.03387 0.110066,-0.03387 0.05503,0 0.122767,0.04657 0.07197,0.04233 0.160867,0.110066 0.0889,0.06773 0.2032,0.148167 0.1143,0.08043 0.258233,0.148167 0.148167,0.06773 0.334434,0.1143 0.186266,0.04233 0.4191,0.04233 0.2921,0 0.5207,-0.08043 0.2286,-0.08043 0.385234,-0.224367 0.160866,-0.148167 0.245533,-0.351367 0.08467,-0.2032 0.08467,-0.452966 0,-0.275167 -0.127,-0.448734 -0.122767,-0.1778 -0.325967,-0.296333 -0.2032,-0.118534 -0.465667,-0.198967 -0.262467,-0.08467 -0.5334,-0.169334 -0.270934,-0.0889 -0.5334,-0.2032 -0.262467,-0.1143 -0.465667,-0.296333 -0.2032,-0.182034 -0.3302,-0.452967 -0.122767,-0.275167 -0.122767,-0.677334 0,-0.321733 0.122767,-0.6223 0.127,-0.300567 0.364066,-0.5334 0.2413,-0.232833 0.588434,-0.372534 0.351367,-0.1397 0.804334,-0.1397 0.508,0 0.922867,0.160867 0.4191,0.160867 0.7366,0.465667 z"
         id="path12646-4-1" />
    </g>
    <g
       aria-label="S"
       id="text10663-0-3-14-7"
       style="font-size:8.46667px;line-height:1.25;font-family:LATO;-inkscape-font-specification:LATO;stroke-width:0.264583"
       transform="translate(11.283166,127.91453)">
      <path
         d="m 82.251041,-36.088908 q -0.0381,0.0635 -0.08467,0.09737 -0.04233,0.02963 -0.105833,0.02963 -0.07197,0 -0.169333,-0.07197 -0.09737,-0.07197 -0.245534,-0.156633 -0.143933,-0.0889 -0.351367,-0.160867 -0.2032,-0.07197 -0.4953,-0.07197 -0.275167,0 -0.486833,0.0762 -0.207434,0.07197 -0.351367,0.198967 -0.1397,0.127 -0.211667,0.300567 -0.07197,0.169333 -0.07197,0.3683 0,0.254 0.122767,0.423334 0.127,0.1651 0.3302,0.283633 0.207434,0.118533 0.465667,0.207433 0.262467,0.08467 0.5334,0.177801 0.275167,0.09313 0.533401,0.211666 0.262466,0.1143 0.465666,0.2921 0.207434,0.1778 0.330201,0.436034 0.127,0.258233 0.127,0.635 0,0.397934 -0.135467,0.7493 -0.135467,0.347134 -0.397934,0.605367 -0.258233,0.258234 -0.639233,0.406401 -0.376767,0.148166 -0.859367,0.148166 -0.592667,0 -1.075267,-0.211667 -0.4826,-0.2159 -0.825501,-0.579966 l 0.237067,-0.389467 q 0.03387,-0.04657 0.08043,-0.0762 0.0508,-0.03387 0.110066,-0.03387 0.05503,0 0.122767,0.04657 0.07197,0.04233 0.160867,0.110066 0.0889,0.06773 0.2032,0.148167 0.1143,0.08043 0.258233,0.148167 0.148167,0.06773 0.334434,0.1143 0.186266,0.04233 0.4191,0.04233 0.2921,0 0.5207,-0.08043 0.2286,-0.08043 0.385234,-0.224367 0.160866,-0.148167 0.245533,-0.351367 0.08467,-0.2032 0.08467,-0.452966 0,-0.275167 -0.127,-0.448734 -0.122767,-0.1778 -0.325967,-0.296333 -0.2032,-0.118534 -0.465667,-0.198967 -0.262467,-0.08467 -0.5334,-0.169334 -0.270934,-0.0889 -0.5334,-0.2032 -0.262467,-0.1143 -0.465667,-0.296333 -0.2032,-0.182034 -0.3302,-0.452967 -0.122767,-0.275167 -0.122767,-0.677334 0,-0.321733 0.122767,-0.6223 0.127,-0.300567 0.364066,-0.5334 0.2413,-0.232833 0.588434,-0.372534 0.351367,-0.1397 0.804334,-0.1397 0.508,0 0.922867,0.160867 0.4191,0.160867 0.7366,0.465667 z"
         id="path12646-4-0-5" />
    </g>
    <g
       aria-label="S"
       id="text10663-0-3-1-0"
       style="font-size:8.46667px;line-height:1.25;font-family:LATO;-inkscape-font-specification:LATO;stroke-width:0.264583"
       transform="translate(-11.116835,127.91453)">
      <path
         d="m 82.251041,-36.088908 q -0.0381,0.0635 -0.08467,0.09737 -0.04233,0.02963 -0.105833,0.02963 -0.07197,0 -0.169333,-0.07197 -0.09737,-0.07197 -0.245534,-0.156633 -0.143933,-0.0889 -0.351367,-0.160867 -0.2032,-0.07197 -0.4953,-0.07197 -0.275167,0 -0.486833,0.0762 -0.207434,0.07197 -0.351367,0.198967 -0.1397,0.127 -0.211667,0.300567 -0.07197,0.169333 -0.07197,0.3683 0,0.254 0.122767,0.423334 0.127,0.1651 0.3302,0.283633 0.207434,0.118533 0.465667,0.207433 0.262467,0.08467 0.5334,0.177801 0.275167,0.09313 0.533401,0.211666 0.262466,0.1143 0.465666,0.2921 0.207434,0.1778 0.330201,0.436034 0.127,0.258233 0.127,0.635 0,0.397934 -0.135467,0.7493 -0.135467,0.347134 -0.397934,0.605367 -0.258233,0.258234 -0.639233,0.406401 -0.376767,0.148166 -0.859367,0.148166 -0.592667,0 -1.075267,-0.211667 -0.4826,-0.2159 -0.825501,-0.579966 l 0.237067,-0.389467 q 0.03387,-0.04657 0.08043,-0.0762 0.0508,-0.03387 0.110066,-0.03387 0.05503,0 0.122767,0.04657 0.07197,0.04233 0.160867,0.110066 0.0889,0.06773 0.2032,0.148167 0.1143,0.08043 0.258233,0.148167 0.148167,0.06773 0.334434,0.1143 0.186266,0.04233 0.4191,0.04233 0.2921,0 0.5207,-0.08043 0.2286,-0.08043 0.385234,-0.224367 0.160866,-0.148167 0.245533,-0.351367 0.08467,-0.2032 0.08467,-0.452966 0,-0.275167 -0.127,-0.448734 -0.122767,-0.1778 -0.325967,-0.296333 -0.2032,-0.118534 -0.465667,-0.198967 -0.262467,-0.08467 -0.5334,-0.169334 -0.270934,-0.0889 -0.5334,-0.2032 -0.262467,-0.1143 -0.465667,-0.296333 -0.2032,-0.182034 -0.3302,-0.452967 -0.122767,-0.275167 -0.122767,-0.677334 0,-0.321733 0.122767,-0.6223 0.127,-0.300567 0.364066,-0.5334 0.2413,-0.232833 0.588434,-0.372534 0.351367,-0.1397 0.804334,-0.1397 0.508,0 0.922867,0.160867 0.4191,0.160867 0.7366,0.465667 z"
         id="path12646-4-9-30" />
    </g>
    <g
       aria-label="N"
       id="text11891-7-4"
       style="font-size:8.46667px;line-height:1.25;font-family:LATO;-inkscape-font-specification:LATO;stroke-width:0.264583"
       transform="translate(-0.06970748,109.5322)">
      <path
         d="m 94.576184,-37.037177 v 6.066369 H 94.16555 q -0.09737,0 -0.1651,-0.03387 -0.0635,-0.03387 -0.127,-0.1143 l -3.509435,-4.572002 q 0.0085,0.105834 0.0127,0.207434 0.0042,0.1016 0.0042,0.1905 v 4.322235 h -0.719667 v -6.066369 h 0.423333 q 0.05503,0 0.09313,0.0085 0.0381,0.0042 0.06773,0.02117 0.02963,0.0127 0.05927,0.04233 0.02963,0.0254 0.0635,0.06773 l 3.509434,4.567768 q -0.0085,-0.110066 -0.01693,-0.211666 -0.0042,-0.105834 -0.0042,-0.198967 v -4.296835 z"
         id="path12649-8" />
    </g>
    <g
       aria-label="S"
       id="text10663-8-6"
       style="font-size:8.46667px;line-height:1.25;font-family:LATO;-inkscape-font-specification:LATO;stroke-width:0.264583"
       transform="translate(-0.06970748,109.5322)">
      <path
         d="m 104.87052,-36.21634 q -0.0381,0.0635 -0.0847,0.09737 -0.0423,0.02963 -0.10583,0.02963 -0.072,0 -0.16934,-0.07197 -0.0974,-0.07197 -0.24553,-0.156633 -0.14393,-0.0889 -0.35137,-0.160867 -0.2032,-0.07197 -0.4953,-0.07197 -0.27516,0 -0.48683,0.0762 -0.20743,0.07197 -0.35137,0.198966 -0.1397,0.127 -0.21166,0.300567 -0.072,0.169333 -0.072,0.3683 0,0.254 0.12277,0.423334 0.127,0.1651 0.3302,0.283633 0.20743,0.118534 0.46566,0.207434 0.26247,0.08467 0.5334,0.1778 0.27517,0.09313 0.5334,0.211666 0.26247,0.1143 0.46567,0.292101 0.20743,0.1778 0.3302,0.436033 0.127,0.258233 0.127,0.635 0,0.397934 -0.13547,0.749301 -0.13546,0.347133 -0.39793,0.605366 -0.25823,0.258234 -0.63923,0.406401 -0.37677,0.148166 -0.85937,0.148166 -0.59267,0 -1.07527,-0.211666 -0.4826,-0.2159 -0.8255,-0.579967 l 0.23707,-0.389467 q 0.0339,-0.04657 0.0804,-0.0762 0.0508,-0.03387 0.11007,-0.03387 0.055,0 0.12277,0.04657 0.072,0.04233 0.16086,0.110067 0.0889,0.06773 0.2032,0.148166 0.1143,0.08043 0.25824,0.148167 0.14816,0.06773 0.33443,0.1143 0.18627,0.04233 0.4191,0.04233 0.2921,0 0.5207,-0.08043 0.2286,-0.08043 0.38523,-0.224367 0.16087,-0.148166 0.24554,-0.351366 0.0847,-0.203201 0.0847,-0.452967 0,-0.275167 -0.127,-0.448734 -0.12276,-0.1778 -0.32596,-0.296333 -0.2032,-0.118534 -0.46567,-0.198967 -0.26247,-0.08467 -0.5334,-0.169333 -0.27093,-0.0889 -0.5334,-0.203201 -0.26247,-0.1143 -0.46567,-0.296333 -0.2032,-0.182033 -0.3302,-0.452967 -0.12276,-0.275167 -0.12276,-0.677333 0,-0.321734 0.12276,-0.622301 0.127,-0.300566 0.36407,-0.5334 0.2413,-0.232833 0.58843,-0.372533 0.35137,-0.1397 0.80434,-0.1397 0.508,0 0.92286,0.160866 0.4191,0.160867 0.7366,0.465667 z"
         id="path12652-2" />
    </g>
    <g
       aria-label="N"
       id="text12611-21"
       style="font-size:8.46667px;line-height:1.25;font-family:LATO;-inkscape-font-specification:LATO;stroke-width:0.264583"
       transform="translate(-0.06970748,109.5322)">
      <path
         d="m 72.042088,-37.139384 v 6.066369 h -0.410634 q -0.09737,0 -0.1651,-0.03387 -0.0635,-0.03387 -0.127,-0.1143 l -3.509434,-4.572002 q 0.0085,0.105834 0.0127,0.207434 0.0042,0.1016 0.0042,0.1905 v 4.322235 h -0.719667 v -6.066369 h 0.423333 q 0.05503,0 0.09313,0.0085 0.0381,0.0042 0.06773,0.02117 0.02963,0.0127 0.05927,0.04233 0.02963,0.0254 0.0635,0.06773 l 3.509435,4.567768 q -0.0085,-0.110066 -0.01693,-0.211667 -0.0042,-0.105833 -0.0042,-0.198966 v -4.296835 z"
         id="path12643-30" />
    </g>
    <g
       aria-label="N"
       id="text12611-2-95"
       style="font-size:8.46667px;line-height:1.25;font-family:LATO;-inkscape-font-specification:LATO;stroke-width:0.264583"
       transform="translate(-11.451061,128.00338)">
      <path
         d="m 72.042088,-37.139384 v 6.066369 h -0.410634 q -0.09737,0 -0.1651,-0.03387 -0.0635,-0.03387 -0.127,-0.1143 l -3.509434,-4.572002 q 0.0085,0.105834 0.0127,0.207434 0.0042,0.1016 0.0042,0.1905 v 4.322235 h -0.719667 v -6.066369 h 0.423333 q 0.05503,0 0.09313,0.0085 0.0381,0.0042 0.06773,0.02117 0.02963,0.0127 0.05927,0.04233 0.02963,0.0254 0.0635,0.06773 l 3.509435,4.567768 q -0.0085,-0.110066 -0.01693,-0.211667 -0.0042,-0.105833 -0.0042,-0.198966 v -4.296835 z"
         id="path12643-0-4" />
    </g>
    <g
       aria-label="N"
       id="text12611-2-9-0"
       style="font-size:8.46667px;line-height:1.25;font-family:LATO;-inkscape-font-specification:LATO;stroke-width:0.264583"
       transform="translate(33.708712,128.00338)">
      <path
         d="m 72.042088,-37.139384 v 6.066369 h -0.410634 q -0.09737,0 -0.1651,-0.03387 -0.0635,-0.03387 -0.127,-0.1143 l -3.509434,-4.572002 q 0.0085,0.105834 0.0127,0.207434 0.0042,0.1016 0.0042,0.1905 v 4.322235 h -0.719667 v -6.066369 h 0.423333 q 0.05503,0 0.09313,0.0085 0.0381,0.0042 0.06773,0.02117 0.02963,0.0127 0.05927,0.04233 0.02963,0.0254 0.0635,0.06773 l 3.509435,4.567768 q -0.0085,-0.110066 -0.01693,-0.211667 -0.0042,-0.105833 -0.0042,-0.198966 v -4.296835 z"
         id="path12643-0-6-2" />
    </g>
    <g
       aria-label="S"
       id="text10663-0-3-5"
       style="font-size:8.46667px;line-height:1.25;font-family:LATO;-inkscape-font-specification:LATO;stroke-width:0.264583"
       transform="translate(0,36.482328)">
      <path
         d="m 82.251041,-36.088908 q -0.0381,0.0635 -0.08467,0.09737 -0.04233,0.02963 -0.105833,0.02963 -0.07197,0 -0.169333,-0.07197 -0.09737,-0.07197 -0.245534,-0.156633 -0.143933,-0.0889 -0.351367,-0.160867 -0.2032,-0.07197 -0.4953,-0.07197 -0.275167,0 -0.486833,0.0762 -0.207434,0.07197 -0.351367,0.198967 -0.1397,0.127 -0.211667,0.300567 -0.07197,0.169333 -0.07197,0.3683 0,0.254 0.122767,0.423334 0.127,0.1651 0.3302,0.283633 0.207434,0.118533 0.465667,0.207433 0.262467,0.08467 0.5334,0.177801 0.275167,0.09313 0.533401,0.211666 0.262466,0.1143 0.465666,0.2921 0.207434,0.1778 0.330201,0.436034 0.127,0.258233 0.127,0.635 0,0.397934 -0.135467,0.7493 -0.135467,0.347134 -0.397934,0.605367 -0.258233,0.258234 -0.639233,0.406401 -0.376767,0.148166 -0.859367,0.148166 -0.592667,0 -1.075267,-0.211667 -0.4826,-0.2159 -0.825501,-0.579966 l 0.237067,-0.389467 q 0.03387,-0.04657 0.08043,-0.0762 0.0508,-0.03387 0.110066,-0.03387 0.05503,0 0.122767,0.04657 0.07197,0.04233 0.160867,0.110066 0.0889,0.06773 0.2032,0.148167 0.1143,0.08043 0.258233,0.148167 0.148167,0.06773 0.334434,0.1143 0.186266,0.04233 0.4191,0.04233 0.2921,0 0.5207,-0.08043 0.2286,-0.08043 0.385234,-0.224367 0.160866,-0.148167 0.245533,-0.351367 0.08467,-0.2032 0.08467,-0.452966 0,-0.275167 -0.127,-0.448734 -0.122767,-0.1778 -0.325967,-0.296333 -0.2032,-0.118534 -0.465667,-0.198967 -0.262467,-0.08467 -0.5334,-0.169334 -0.270934,-0.0889 -0.5334,-0.2032 -0.262467,-0.1143 -0.465667,-0.296333 -0.2032,-0.182034 -0.3302,-0.452967 -0.122767,-0.275167 -0.122767,-0.677334 0,-0.321733 0.122767,-0.6223 0.127,-0.300567 0.364066,-0.5334 0.2413,-0.232833 0.588434,-0.372534 0.351367,-0.1397 0.804334,-0.1397 0.508,0 0.922867,0.160867 0.4191,0.160867 0.7366,0.465667 z"
         id="path12646-4-90" />
    </g>
    <g
       aria-label="N"
       id="text12611-2-5"
       style="font-size:8.46667px;line-height:1.25;font-family:LATO;-inkscape-font-specification:LATO;stroke-width:0.264583;font-variation-settings:normal;opacity:1;vector-effect:none;fill:#000000;fill-opacity:1;stroke-linecap:butt;stroke-linejoin:miter;stroke-miterlimit:4;stroke-dasharray:none;stroke-dashoffset:0;stroke-opacity:1;-inkscape-stroke:none;stop-color:#000000;stop-opacity:1"
       transform="translate(-11.381353,36.571174)">
      <path
         d="m 72.042088,-37.139384 v 6.066369 h -0.410634 q -0.09737,0 -0.1651,-0.03387 -0.0635,-0.03387 -0.127,-0.1143 l -3.509434,-4.572002 q 0.0085,0.105834 0.0127,0.207434 0.0042,0.1016 0.0042,0.1905 v 4.322235 h -0.719667 v -6.066369 h 0.423333 q 0.05503,0 0.09313,0.0085 0.0381,0.0042 0.06773,0.02117 0.02963,0.0127 0.05927,0.04233 0.02963,0.0254 0.0635,0.06773 l 3.509435,4.567768 q -0.0085,-0.110066 -0.01693,-0.211667 -0.0042,-0.105833 -0.0042,-0.198966 v -4.296835 z"
         id="path12643-0-3"
         style="font-variation-settings:normal;vector-effect:none;fill:#000000;fill-opacity:1;stroke-width:0.264583;stroke-linecap:butt;stroke-linejoin:miter;stroke-miterlimit:4;stroke-dasharray:none;stroke-dashoffset:0;stroke-opacity:1;-inkscape-stroke:none;stop-color:#000000;stop-opacity:1" />
    </g>
    <g
       aria-label="N"
       id="text12611-2-5-1"
       style="font-size:8.46667px;line-height:1.25;font-family:LATO;-inkscape-font-specification:LATO;stroke-width:0.264583"
       transform="translate(-0.12158,36.571174)">
      <path
         d="m 72.042088,-37.139384 v 6.066369 h -0.410634 q -0.09737,0 -0.1651,-0.03387 -0.0635,-0.03387 -0.127,-0.1143 l -3.509434,-4.572002 q 0.0085,0.105834 0.0127,0.207434 0.0042,0.1016 0.0042,0.1905 v 4.322235 h -0.719667 v -6.066369 h 0.423333 q 0.05503,0 0.09313,0.0085 0.0381,0.0042 0.06773,0.02117 0.02963,0.0127 0.05927,0.04233 0.02963,0.0254 0.0635,0.06773 l 3.509435,4.567768 q -0.0085,-0.110066 -0.01693,-0.211667 -0.0042,-0.105833 -0.0042,-0.198966 v -4.296835 z"
         id="path12643-0-3-6" />
    </g>
    <g
       aria-label="N"
       id="text12611-2-9-8"
       style="font-size:8.46667px;line-height:1.25;font-family:LATO;-inkscape-font-specification:LATO;font-variation-settings:normal;opacity:1;vector-effect:none;fill:#000000;fill-opacity:1;stroke-width:0.264583;stroke-linecap:butt;stroke-linejoin:miter;stroke-miterlimit:4;stroke-dasharray:none;stroke-dashoffset:0;stroke-opacity:1;-inkscape-stroke:none;stop-color:#000000;stop-opacity:1"
       transform="translate(33.77842,36.571174)">
      <path
         d="m 72.042088,-37.139384 v 6.066369 h -0.410634 q -0.09737,0 -0.1651,-0.03387 -0.0635,-0.03387 -0.127,-0.1143 l -3.509434,-4.572002 q 0.0085,0.105834 0.0127,0.207434 0.0042,0.1016 0.0042,0.1905 v 4.322235 h -0.719667 v -6.066369 h 0.423333 q 0.05503,0 0.09313,0.0085 0.0381,0.0042 0.06773,0.02117 0.02963,0.0127 0.05927,0.04233 0.02963,0.0254 0.0635,0.06773 l 3.509435,4.567768 q -0.0085,-0.110066 -0.01693,-0.211667 -0.0042,-0.105833 -0.0042,-0.198966 v -4.296835 z"
         id="path12643-0-6-3"
         style="font-variation-settings:normal;vector-effect:none;fill:#000000;fill-opacity:1;stroke-width:0.264583;stroke-linecap:butt;stroke-linejoin:miter;stroke-miterlimit:4;stroke-dasharray:none;stroke-dashoffset:0;stroke-opacity:1;-inkscape-stroke:none;stop-color:#000000;stop-opacity:1" />
    </g>
    <g
       aria-label="N"
       id="text12611-2-5-5"
       style="font-size:8.46667px;line-height:1.25;font-family:LATO;-inkscape-font-specification:LATO;font-variation-settings:normal;vector-effect:none;fill:#000000;fill-opacity:1;stroke-width:0.264583;stroke-linecap:butt;stroke-linejoin:miter;stroke-miterlimit:4;stroke-dasharray:none;stroke-dashoffset:0;stroke-opacity:1;-inkscape-stroke:none;stop-color:#000000"
       transform="translate(-11.381353,55.0168)">
      <path
         d="m 72.042088,-37.139384 v 6.066369 h -0.410634 q -0.09737,0 -0.1651,-0.03387 -0.0635,-0.03387 -0.127,-0.1143 l -3.509434,-4.572002 q 0.0085,0.105834 0.0127,0.207434 0.0042,0.1016 0.0042,0.1905 v 4.322235 h -0.719667 v -6.066369 h 0.423333 q 0.05503,0 0.09313,0.0085 0.0381,0.0042 0.06773,0.02117 0.02963,0.0127 0.05927,0.04233 0.02963,0.0254 0.0635,0.06773 l 3.509435,4.567768 q -0.0085,-0.110066 -0.01693,-0.211667 -0.0042,-0.105833 -0.0042,-0.198966 v -4.296835 z"
         id="path12643-0-3-67"
         style="font-variation-settings:normal;vector-effect:none;fill:#000000;fill-opacity:1;stroke-width:0.264583;stroke-linecap:butt;stroke-linejoin:miter;stroke-miterlimit:4;stroke-dasharray:none;stroke-dashoffset:0;stroke-opacity:1;-inkscape-stroke:none;stop-color:#000000;stop-opacity:1" />
    </g>
    <g
       aria-label="N"
       id="text12611-2-5-5-5"
       style="font-size:8.46667px;line-height:1.25;font-family:LATO;-inkscape-font-specification:LATO;font-variation-settings:normal;vector-effect:none;fill:#000000;fill-opacity:1;stroke-width:0.264583;stroke-linecap:butt;stroke-linejoin:miter;stroke-miterlimit:4;stroke-dasharray:none;stroke-dashoffset:0;stroke-opacity:1;-inkscape-stroke:none;stop-color:#000000"
       transform="translate(10.97842,55.0168)">
      <path
         d="m 72.042088,-37.139384 v 6.066369 h -0.410634 q -0.09737,0 -0.1651,-0.03387 -0.0635,-0.03387 -0.127,-0.1143 l -3.509434,-4.572002 q 0.0085,0.105834 0.0127,0.207434 0.0042,0.1016 0.0042,0.1905 v 4.322235 h -0.719667 v -6.066369 h 0.423333 q 0.05503,0 0.09313,0.0085 0.0381,0.0042 0.06773,0.02117 0.02963,0.0127 0.05927,0.04233 0.02963,0.0254 0.0635,0.06773 l 3.509435,4.567768 q -0.0085,-0.110066 -0.01693,-0.211667 -0.0042,-0.105833 -0.0042,-0.198966 v -4.296835 z"
         id="path12643-0-3-67-9"
         style="font-variation-settings:normal;vector-effect:none;fill:#000000;fill-opacity:1;stroke-width:0.264583;stroke-linecap:butt;stroke-linejoin:miter;stroke-miterlimit:4;stroke-dasharray:none;stroke-dashoffset:0;stroke-opacity:1;-inkscape-stroke:none;stop-color:#000000;stop-opacity:1" />
    </g>
    <g
       aria-label="N"
       id="text12611-2-9-8-7"
       style="font-size:8.46667px;line-height:1.25;font-family:LATO;-inkscape-font-specification:LATO;font-variation-settings:normal;vector-effect:none;fill:#000000;fill-opacity:1;stroke-width:0.264583;stroke-linecap:butt;stroke-linejoin:miter;stroke-miterlimit:4;stroke-dasharray:none;stroke-dashoffset:0;stroke-opacity:1;-inkscape-stroke:none;stop-color:#000000"
       transform="translate(33.77842,55.0168)">
      <path
         d="m 72.042088,-37.139384 v 6.066369 h -0.410634 q -0.09737,0 -0.1651,-0.03387 -0.0635,-0.03387 -0.127,-0.1143 l -3.509434,-4.572002 q 0.0085,0.105834 0.0127,0.207434 0.0042,0.1016 0.0042,0.1905 v 4.322235 h -0.719667 v -6.066369 h 0.423333 q 0.05503,0 0.09313,0.0085 0.0381,0.0042 0.06773,0.02117 0.02963,0.0127 0.05927,0.04233 0.02963,0.0254 0.0635,0.06773 l 3.509435,4.567768 q -0.0085,-0.110066 -0.01693,-0.211667 -0.0042,-0.105833 -0.0042,-0.198966 v -4.296835 z"
         id="path12643-0-6-3-7"
         style="font-variation-settings:normal;vector-effect:none;fill:#000000;fill-opacity:1;stroke-width:0.264583;stroke-linecap:butt;stroke-linejoin:miter;stroke-miterlimit:4;stroke-dasharray:none;stroke-dashoffset:0;stroke-opacity:1;-inkscape-stroke:none;stop-color:#000000;stop-opacity:1" />
    </g>
    <g
       aria-label="N"
       id="text12611-2-9-8-0"
       style="font-size:8.46667px;line-height:1.25;font-family:LATO;-inkscape-font-specification:LATO;stroke-width:0.264583"
       transform="translate(22.47842,36.571174)">
      <path
         d="m 72.042088,-37.139384 v 6.066369 h -0.410634 q -0.09737,0 -0.1651,-0.03387 -0.0635,-0.03387 -0.127,-0.1143 l -3.509434,-4.572002 q 0.0085,0.105834 0.0127,0.207434 0.0042,0.1016 0.0042,0.1905 v 4.322235 h -0.719667 v -6.066369 h 0.423333 q 0.05503,0 0.09313,0.0085 0.0381,0.0042 0.06773,0.02117 0.02963,0.0127 0.05927,0.04233 0.02963,0.0254 0.0635,0.06773 l 3.509435,4.567768 q -0.0085,-0.110066 -0.01693,-0.211667 -0.0042,-0.105833 -0.0042,-0.198966 v -4.296835 z"
         id="path12643-0-6-3-2" />
    </g>
    <g
       aria-label="N"
       id="text12611-7"
       style="font-size:8.46667px;line-height:1.25;font-family:LATO;-inkscape-font-specification:LATO;stroke-width:0.264583"
       transform="translate(4.2e-4,73.2168)">
      <path
         d="m 72.042088,-37.139384 v 6.066369 h -0.410634 q -0.09737,0 -0.1651,-0.03387 -0.0635,-0.03387 -0.127,-0.1143 l -3.509434,-4.572002 q 0.0085,0.105834 0.0127,0.207434 0.0042,0.1016 0.0042,0.1905 v 4.322235 h -0.719667 v -6.066369 h 0.423333 q 0.05503,0 0.09313,0.0085 0.0381,0.0042 0.06773,0.02117 0.02963,0.0127 0.05927,0.04233 0.02963,0.0254 0.0635,0.06773 l 3.509435,4.567768 q -0.0085,-0.110066 -0.01693,-0.211667 -0.0042,-0.105833 -0.0042,-0.198966 v -4.296835 z"
         id="path12643-3" />
    </g>
    <g
       aria-label="N"
       id="text12611-7-9"
       style="font-size:8.46667px;line-height:1.25;font-family:LATO;-inkscape-font-specification:LATO;stroke-width:0.264583"
       transform="translate(11.17884,73.2168)">
      <path
         d="m 72.042088,-37.139384 v 6.066369 h -0.410634 q -0.09737,0 -0.1651,-0.03387 -0.0635,-0.03387 -0.127,-0.1143 l -3.509434,-4.572002 q 0.0085,0.105834 0.0127,0.207434 0.0042,0.1016 0.0042,0.1905 v 4.322235 h -0.719667 v -6.066369 h 0.423333 q 0.05503,0 0.09313,0.0085 0.0381,0.0042 0.06773,0.02117 0.02963,0.0127 0.05927,0.04233 0.02963,0.0254 0.0635,0.06773 l 3.509435,4.567768 q -0.0085,-0.110066 -0.01693,-0.211667 -0.0042,-0.105833 -0.0042,-0.198966 v -4.296835 z"
         id="path12643-3-0" />
    </g>
    <g
       aria-label="N"
       id="text12611-7-9-9"
       style="font-size:8.46667px;line-height:1.25;font-family:LATO;-inkscape-font-specification:LATO;stroke-width:0.264583"
       transform="translate(11.17884,91.5168)">
      <path
         d="m 72.042088,-37.139384 v 6.066369 h -0.410634 q -0.09737,0 -0.1651,-0.03387 -0.0635,-0.03387 -0.127,-0.1143 l -3.509434,-4.572002 q 0.0085,0.105834 0.0127,0.207434 0.0042,0.1016 0.0042,0.1905 v 4.322235 h -0.719667 v -6.066369 h 0.423333 q 0.05503,0 0.09313,0.0085 0.0381,0.0042 0.06773,0.02117 0.02963,0.0127 0.05927,0.04233 0.02963,0.0254 0.0635,0.06773 l 3.509435,4.567768 q -0.0085,-0.110066 -0.01693,-0.211667 -0.0042,-0.105833 -0.0042,-0.198966 v -4.296835 z"
         id="path12643-3-0-78" />
    </g>
    <g
       aria-label="N"
       id="text12611-7-9-6"
       style="font-size:8.46667px;line-height:1.25;font-family:LATO;-inkscape-font-specification:LATO;stroke-width:0.264583"
       transform="translate(22.47884,73.2168)">
      <path
         d="m 72.042088,-37.139384 v 6.066369 h -0.410634 q -0.09737,0 -0.1651,-0.03387 -0.0635,-0.03387 -0.127,-0.1143 l -3.509434,-4.572002 q 0.0085,0.105834 0.0127,0.207434 0.0042,0.1016 0.0042,0.1905 v 4.322235 h -0.719667 v -6.066369 h 0.423333 q 0.05503,0 0.09313,0.0085 0.0381,0.0042 0.06773,0.02117 0.02963,0.0127 0.05927,0.04233 0.02963,0.0254 0.0635,0.06773 l 3.509435,4.567768 q -0.0085,-0.110066 -0.01693,-0.211667 -0.0042,-0.105833 -0.0042,-0.198966 v -4.296835 z"
         id="path12643-3-0-7" />
    </g>
  </g>
</svg>
