<?xml version="1.0" encoding="UTF-8" standalone="no"?>
<!-- Created with Inkscape (http://www.inkscape.org/) -->

<svg
   width="150mm"
   height="25mm"
   viewBox="0 0 150 25"
   version="1.1"
   id="svg5"
   inkscape:version="1.1 (c4e8f9e, 2021-05-24)"
   sodipodi:docname="srabbit 604 wide.svg"
   xmlns:inkscape="http://www.inkscape.org/namespaces/inkscape"
   xmlns:sodipodi="http://sodipodi.sourceforge.net/DTD/sodipodi-0.dtd"
   xmlns="http://www.w3.org/2000/svg"
   xmlns:svg="http://www.w3.org/2000/svg">
  <sodipodi:namedview
     id="namedview7"
     pagecolor="#ffffff"
     bordercolor="#666666"
     borderopacity="1.0"
     inkscape:pageshadow="2"
     inkscape:pageopacity="0.0"
     inkscape:pagecheckerboard="0"
     inkscape:document-units="mm"
     showgrid="false"
     inkscape:zoom="1"
     inkscape:cx="278.5"
     inkscape:cy="171.5"
     inkscape:window-width="1332"
     inkscape:window-height="777"
     inkscape:window-x="0"
     inkscape:window-y="25"
     inkscape:window-maximized="0"
     inkscape:current-layer="layer1" />
  <defs
     id="defs2" />
  <g
     inkscape:label="圖層 1"
     inkscape:groupmode="layer"
     id="layer1">
    <g
       aria-label="604"
       id="text1529"
       style="font-weight:900;font-size:26.4583px;line-height:1.25;font-family:Lato;-inkscape-font-specification:'Lato Heavy';stroke-width:0.264583">
      <path
         d="m 109.18103,19.128211 q 0.63499,0 1.17739,-0.238125 0.55562,-0.238124 0.9525,-0.648228 0.39687,-0.423333 0.62177,-0.978957 0.23812,-0.568854 0.23812,-1.230311 0,-0.740833 -0.22489,-1.322915 -0.21167,-0.582083 -0.60854,-0.978957 -0.39688,-0.396875 -0.96573,-0.608541 -0.55563,-0.211666 -1.24354,-0.211666 -0.62177,0 -1.13771,0.224895 -0.51594,0.211666 -0.89958,0.62177 -0.37042,0.410104 -0.58208,0.978957 -0.21167,0.568854 -0.21167,1.283228 0,0.714374 0.17198,1.283227 0.17198,0.568854 0.52917,0.978957 0.35718,0.410104 0.89958,0.635 0.54239,0.211666 1.28323,0.211666 z m -0.66146,-8.837072 q 0.92604,-0.343958 2.06374,-0.343958 1.04511,0 2.06375,0.343958 1.01865,0.343958 1.82562,1.058332 0.80698,0.714374 1.29646,1.812393 0.50271,1.084791 0.50271,2.566455 0,1.349374 -0.50271,2.566455 -0.50271,1.203853 -1.42875,2.116664 -0.91281,0.899583 -2.20926,1.428749 -1.29646,0.529166 -2.87073,0.529166 -1.61396,0 -2.89718,-0.502708 -1.28323,-0.515937 -2.18281,-1.428748 -0.88636,-0.912812 -1.36261,-2.18281 -0.46302,-1.269998 -0.46302,-2.791351 0,-2.844267 2.19604,-5.781138 l 4.33916,-5.8605134 q 0.30427,-0.3836454 0.87313,-0.6614575 0.58208,-0.2778122 1.32291,-0.2778122 h 3.65125 l -5.71499,6.8262414 z"
         id="path6914" />
      <path
         d="m 131.69911,12.513636 q 0,2.526768 -0.5424,4.378849 -0.54239,1.852081 -1.50812,3.069162 -0.9525,1.217082 -2.27542,1.812394 -1.30968,0.595312 -2.84426,0.595312 -1.53459,0 -2.84427,-0.595312 -1.29646,-0.595312 -2.24896,-1.812394 -0.9525,-1.217081 -1.49489,-3.069162 -0.52917,-1.852081 -0.52917,-4.378849 0,-2.5267676 0.52917,-4.3788486 0.54239,-1.8520809 1.49489,-3.0691627 0.9525,-1.2170818 2.24896,-1.7991644 1.30968,-0.5953117 2.84427,-0.5953117 1.53458,0 2.84426,0.5953117 1.32292,0.5820826 2.27542,1.7991644 0.96573,1.2170818 1.50812,3.0691627 0.5424,1.852081 0.5424,4.3788486 z m -4.23333,0 q 0,-1.997602 -0.25136,-3.2676 -0.25135,-1.2832275 -0.67468,-2.0108308 -0.41011,-0.7276032 -0.93927,-0.9921862 -0.52917,-0.2778121 -1.07156,-0.2778121 -0.5424,0 -1.07156,0.2778121 -0.51594,0.264583 -0.92605,0.9921862 -0.39687,0.7276033 -0.64822,2.0108308 -0.23813,1.269998 -0.23813,3.2676 0,2.010831 0.23813,3.280829 0.25135,1.269999 0.64822,2.010831 0.41011,0.727603 0.92605,1.005415 0.52916,0.264583 1.07156,0.264583 0.54239,0 1.07156,-0.264583 0.52916,-0.277812 0.93927,-1.005415 0.42333,-0.740832 0.67468,-2.010831 0.25136,-1.269998 0.25136,-3.280829 z"
         id="path6916" />
      <path
         d="M 141.4246,14.669987 V 9.6429105 q 0,-0.4630202 0.0265,-0.9921862 0.0397,-0.5423952 0.10583,-1.1244778 l -5.09322,7.1437405 z m 5.55624,0 v 2.301873 q 0,0.30427 -0.21167,0.529165 -0.19843,0.224896 -0.58208,0.224896 h -1.19062 v 4.431765 h -3.57187 v -4.431765 h -7.75228 q -0.38365,0 -0.70115,-0.238125 -0.30427,-0.238124 -0.38364,-0.595311 l -0.42334,-2.02406 8.91645,-11.9856101 h 3.91583 V 14.669987 Z"
         id="path6918" />
    </g>
    <g
       aria-label="srabbit"
       id="text2963"
       style="font-weight:bold;font-size:26.4583px;line-height:1.25;font-family:'Noto Sans';-inkscape-font-specification:'Noto Sans Bold';stroke-width:0.264583">
      <path
         d="m 13.601223,17.929636 q 0,2.222084 -1.550291,3.384802 -1.537372,1.162719 -4.6121158,1.162719 -1.5761291,0 -2.687171,-0.219625 -1.1110419,-0.206705 -2.0799738,-0.620116 v -3.255611 q 1.0981228,0.516763 2.4675465,0.865579 1.3823428,0.348815 2.4287893,0.348815 2.1445692,0 2.1445692,-1.240233 0,-0.465087 -0.28422,-0.749307 Q 9.1441363,17.30952 8.4465054,16.947785 7.7488744,16.573132 6.5861562,16.082206 4.9195934,15.384575 4.1315288,14.790297 3.3563833,14.196019 2.9946487,13.433792 2.6458333,12.658647 2.6458333,11.534686 q 0,-1.9249446 1.4856955,-2.971391 1.4986146,-1.0593656 4.237462,-1.0593656 2.6096562,0 5.0772032,1.1368801 L 12.257637,11.48301 Q 11.172434,11.017922 10.22934,10.720783 9.2862463,10.423644 8.3043954,10.423644 q -1.7440774,0 -1.7440774,0.943094 0,0.529683 0.555521,0.917255 0.56844,0.387573 2.4675464,1.149799 1.6924006,0.684712 2.4804656,1.278991 0.788065,0.594278 1.162718,1.369423 0.374654,0.775146 0.374654,1.84743 z"
         id="path6899" />
      <path
         d="m 24.763318,7.5039294 q 0.800983,0 1.330666,0.1162719 l -0.297139,3.6948597 q -0.478006,-0.12919 -1.162718,-0.12919 -1.886188,0 -2.945553,0.968931 -1.046447,0.968932 -1.046447,2.71301 v 7.350963 H 16.701805 V 7.7752304 h 2.98431 l 0.581359,2.4287896 h 0.193786 q 0.671793,-1.214395 1.808673,-1.9507832 1.149799,-0.7493074 2.493385,-0.7493074 z"
         id="path6901" />
      <path
         d="m 37.656571,22.218775 -0.762227,-1.963702 h -0.103352 q -0.99477,1.253152 -2.054136,1.744077 -1.046446,0.478007 -2.738847,0.478007 -2.079974,0 -3.281449,-1.188557 -1.188557,-1.188556 -1.188557,-3.384802 0,-2.299598 1.601967,-3.384802 1.614887,-1.098123 4.857579,-1.214394 l 2.506304,-0.07752 v -0.633035 q 0,-2.196246 -2.247922,-2.196246 -1.731159,0 -4.069514,1.046446 L 28.871589,8.7829195 q 2.493384,-1.3048282 5.529371,-1.3048282 2.906795,0 4.457086,1.2660709 1.550291,1.2660708 1.550291,3.8498898 v 9.624723 z m -1.162718,-6.69209 -1.524453,0.05168 q -1.718239,0.05168 -2.55798,0.620116 -0.839741,0.56844 -0.839741,1.731158 0,1.666563 1.912025,1.666563 1.369424,0 2.183327,-0.788064 0.826822,-0.788065 0.826822,-2.092893 z"
         id="path6903" />
      <path
         d="m 52.487687,7.5039294 q 2.557981,0 4.004919,2.0024592 1.446938,1.9895404 1.446938,5.4647754 0,3.578589 -1.498615,5.542291 -1.485695,1.963702 -4.056594,1.963702 -2.545061,0 -3.992,-1.84743 h -0.271301 l -0.658873,1.589048 H 44.452012 V 2.1166682 h 3.940323 v 4.6767112 q 0,0.8914173 -0.155029,2.8551192 h 0.155029 q 1.382343,-2.1445692 4.095352,-2.1445692 z m -1.266071,3.1522586 q -1.459857,0 -2.13165,0.904336 -0.671792,0.891418 -0.697631,2.958472 v 0.42633 q 0,2.325437 0.684712,3.333126 0.697631,1.007689 2.196246,1.007689 1.214394,0 1.924944,-1.111042 0.72347,-1.123961 0.72347,-3.255611 0,-2.13165 -0.72347,-3.191016 -0.723469,-1.072284 -1.976621,-1.072284 z"
         id="path6905" />
      <path
         d="m 69.230832,7.5039294 q 2.557981,0 4.004919,2.0024592 1.446938,1.9895404 1.446938,5.4647754 0,3.578589 -1.498615,5.542291 -1.485695,1.963702 -4.056594,1.963702 -2.545061,0 -3.992,-1.84743 h -0.271301 l -0.658873,1.589048 H 61.195157 V 2.1166682 h 3.940323 v 4.6767112 q 0,0.8914173 -0.155029,2.8551192 h 0.155029 q 1.382343,-2.1445692 4.095352,-2.1445692 z m -1.266071,3.1522586 q -1.459857,0 -2.13165,0.904336 -0.671792,0.891418 -0.697631,2.958472 v 0.42633 q 0,2.325437 0.684712,3.333126 0.697631,1.007689 2.196246,1.007689 1.214394,0 1.924944,-1.111042 0.72347,-1.123961 0.72347,-3.255611 0,-2.13165 -0.72347,-3.191016 -0.723469,-1.072284 -1.976621,-1.072284 z"
         id="path6907" />
      <path
         d="m 77.770354,4.0416129 q 0,-1.9249447 2.144569,-1.9249447 2.14457,0 2.14457,1.9249447 0,0.9172555 -0.542602,1.4340192 -0.529683,0.5038445 -1.601968,0.5038445 -2.144569,0 -2.144569,-1.9378637 z M 81.878625,22.218775 H 77.938302 V 7.7752304 h 3.940323 z"
         id="path6909" />
      <path
         d="m 92.084703,19.337817 q 1.033527,0 2.480465,-0.452168 v 2.932634 q -1.472776,0.658874 -3.617345,0.658874 -2.364194,0 -3.449398,-1.188557 -1.072284,-1.201475 -1.072284,-3.591507 V 10.733702 H 84.539953 V 9.0671395 l 2.170408,-1.3177473 1.13688,-3.0489056 h 2.519223 v 3.0747438 h 4.043675 v 2.9584716 h -4.043675 v 6.963391 q 0,0.839741 0.465087,1.240233 0.478006,0.400491 1.253152,0.400491 z"
         id="path6911" />
    </g>
  </g>
</svg>
