<?xml version="1.0" encoding="UTF-8" standalone="no"?>
<!-- Created with Inkscape (http://www.inkscape.org/) -->

<svg
   width="360mm"
   height="75mm"
   viewBox="0 0 360 75.000001"
   version="1.1"
   id="svg5"
   inkscape:version="1.1.1 (c3084ef, 2021-09-22)"
   sodipodi:docname="srabbit 604 parallelizer logo full.svg"
   xmlns:inkscape="http://www.inkscape.org/namespaces/inkscape"
   xmlns:sodipodi="http://sodipodi.sourceforge.net/DTD/sodipodi-0.dtd"
   xmlns:xlink="http://www.w3.org/1999/xlink"
   xmlns="http://www.w3.org/2000/svg"
   xmlns:svg="http://www.w3.org/2000/svg">
  <sodipodi:namedview
     id="namedview7"
     pagecolor="#ffffff"
     bordercolor="#666666"
     borderopacity="1.0"
     inkscape:pageshadow="2"
     inkscape:pageopacity="0.0"
     inkscape:pagecheckerboard="0"
     inkscape:document-units="mm"
     showgrid="false"
     inkscape:zoom="0.32910098"
     inkscape:cx="694.31577"
     inkscape:cy="262.83726"
     inkscape:window-width="1332"
     inkscape:window-height="779"
     inkscape:window-x="0"
     inkscape:window-y="25"
     inkscape:window-maximized="0"
     inkscape:current-layer="layer1"
     height="50mm" />
  <defs
     id="defs2">
    <linearGradient
       inkscape:collect="always"
       id="linearGradient1152">
      <stop
         style="stop-color:#fc0000;stop-opacity:1;"
         offset="0"
         id="stop1148" />
      <stop
         style="stop-color:#ffff00;stop-opacity:1"
         offset="0.33000001"
         id="stop2826" />
      <stop
         style="stop-color:#00ff00;stop-opacity:1"
         offset="0.66000003"
         id="stop3150" />
      <stop
         style="stop-color:#0000ff;stop-opacity:1"
         offset="1"
         id="stop1150" />
    </linearGradient>
    <linearGradient
       id="linearGradient1089"
       inkscape:swatch="gradient">
      <stop
         style="stop-color:#fc0000;stop-opacity:1;"
         offset="0"
         id="stop1085" />
      <stop
         style="stop-color:#000000;stop-opacity:0;"
         offset="1"
         id="stop1087" />
    </linearGradient>
    <linearGradient
       inkscape:collect="always"
       xlink:href="#linearGradient1152"
       id="linearGradient1154"
       x1="133.06996"
       y1="134.38762"
       x2="393.06995"
       y2="134.38762"
       gradientUnits="userSpaceOnUse"
       gradientTransform="matrix(0.97468462,0,0,1.3333333,5.3687217,-40.29588)" />
  </defs>
  <g
     inkscape:label="圖層 1"
     inkscape:groupmode="layer"
     id="layer1"
     transform="translate(-33.069966,-76.887616)">
    <g
       aria-label="Parallelizer"
       id="text835"
       style="font-weight:bold;font-size:52.9167px;line-height:1.25;font-family:Lato;-inkscape-font-specification:'Lato Bold';stroke-width:0.264583"
       transform="translate(0.525776)">
      <path
         d="m 146.97961,105.68117 q 1.95792,0 3.41313,-0.47625 1.45521,-0.50271 2.40771,-1.4023 0.97896,-0.92604 1.45521,-2.2225 0.47625,-1.32292 0.47625,-2.936874 0,-1.534585 -0.47625,-2.778127 -0.47625,-1.243543 -1.42875,-2.116668 -0.9525,-0.873126 -2.40771,-1.322918 -1.45521,-0.47625 -3.43959,-0.47625 h -5.31813 v 13.731887 z m 0,-19.235223 q 3.83646,0 6.64105,0.899583 2.80458,0.899584 4.63021,2.513544 1.82562,1.613959 2.69875,3.862919 0.89958,2.248959 0.89958,4.921253 0,2.778124 -0.92604,5.106464 -0.92604,2.30187 -2.77812,3.96875 -1.85209,1.66688 -4.65667,2.59292 -2.77813,0.92604 -6.50876,0.92604 h -5.31813 v 13.4673 h -7.11729 V 86.445947 Z"
         id="path4497" />
      <path
         d="m 179.78879,113.11596 q -2.83104,0.13229 -4.7625,0.50271 -1.93146,0.34396 -3.09563,0.89959 -1.16417,0.55562 -1.66687,1.29645 -0.50271,0.74084 -0.50271,1.61396 0,1.7198 1.00541,2.46063 1.03188,0.74083 2.6723,0.74083 2.01083,0 3.46604,-0.71437 1.48167,-0.74084 2.88396,-2.2225 z M 164.81337,101.342 q 4.68312,-4.286255 11.27125,-4.286255 2.38125,0 4.2598,0.79375 1.87854,0.767292 3.175,2.169585 1.29646,1.37583 1.95792,3.30729 0.68791,1.93146 0.68791,4.23334 v 17.14501 h -2.96333 q -0.92604,0 -1.42875,-0.26458 -0.50271,-0.29105 -0.79375,-1.13771 l -0.58209,-1.95792 q -1.03187,0.92604 -2.01083,1.64042 -0.97896,0.68791 -2.03729,1.16416 -1.05834,0.47625 -2.27542,0.71438 -1.19063,0.26458 -2.64584,0.26458 -1.71979,0 -3.175,-0.44979 -1.45521,-0.47625 -2.51354,-1.40229 -1.05834,-0.92604 -1.64042,-2.30188 -0.58208,-1.37583 -0.58208,-3.20146 0,-1.03187 0.34396,-2.03729 0.34395,-1.03188 1.11125,-1.95792 0.79375,-0.92604 2.03729,-1.74625 1.24354,-0.82021 3.04271,-1.42875 1.82563,-0.60854 4.23333,-0.97896 2.40771,-0.39687 5.50334,-0.47625 v -1.5875 q 0,-2.72521 -1.16417,-4.02167 -1.16416,-1.32292 -3.36021,-1.32292 -1.5875,0 -2.64583,0.37042 -1.03188,0.37042 -1.82563,0.84667 -0.79375,0.44979 -1.45521,0.82021 -0.635,0.37041 -1.42875,0.37041 -0.68791,0 -1.16416,-0.34396 -0.47626,-0.37041 -0.7673,-0.84666 z"
         id="path4499" />
      <path
         d="m 198.48492,102.26804 q 1.27,-2.434169 3.01625,-3.810003 1.74626,-1.402292 4.12751,-1.402292 1.87854,0 3.01625,0.820208 l -0.42333,4.894797 q -0.1323,0.47625 -0.39688,0.68792 -0.23813,0.1852 -0.66146,0.1852 -0.39687,0 -1.19062,-0.13229 -0.7673,-0.13229 -1.50813,-0.13229 -1.08479,0 -1.93146,0.3175 -0.84667,0.3175 -1.53458,0.92604 -0.66146,0.58209 -1.19063,1.42875 -0.50271,0.84667 -0.9525,1.93146 v 16.72168 h -6.53521 V 97.558453 h 3.83646 q 1.00542,0 1.40229,0.370417 0.39688,0.343959 0.52917,1.270001 z"
         id="path4501" />
      <path
         d="m 226.0909,113.11596 q -2.83104,0.13229 -4.7625,0.50271 -1.93146,0.34396 -3.09563,0.89959 -1.16416,0.55562 -1.66687,1.29645 -0.50271,0.74084 -0.50271,1.61396 0,1.7198 1.00542,2.46063 1.03187,0.74083 2.67229,0.74083 2.01083,0 3.46604,-0.71437 1.48167,-0.74084 2.88396,-2.2225 z M 211.11548,101.342 q 4.68313,-4.286255 11.27126,-4.286255 2.38125,0 4.25979,0.79375 1.87854,0.767292 3.175,2.169585 1.29646,1.37583 1.95792,3.30729 0.68792,1.93146 0.68792,4.23334 v 17.14501 h -2.96334 q -0.92604,0 -1.42875,-0.26458 -0.50271,-0.29105 -0.79375,-1.13771 l -0.58208,-1.95792 q -1.03188,0.92604 -2.01084,1.64042 -0.97896,0.68791 -2.03729,1.16416 -1.05834,0.47625 -2.27542,0.71438 -1.19063,0.26458 -2.64583,0.26458 -1.7198,0 -3.17501,-0.44979 -1.45521,-0.47625 -2.51354,-1.40229 -1.05833,-0.92604 -1.64042,-2.30188 -0.58208,-1.37583 -0.58208,-3.20146 0,-1.03187 0.34396,-2.03729 0.34396,-1.03188 1.11125,-1.95792 0.79375,-0.92604 2.03729,-1.74625 1.24354,-0.82021 3.04271,-1.42875 1.82563,-0.60854 4.23334,-0.97896 2.40771,-0.39687 5.50333,-0.47625 v -1.5875 q 0,-2.72521 -1.16416,-4.02167 -1.16417,-1.32292 -3.36021,-1.32292 -1.5875,0 -2.64584,0.37042 -1.03187,0.37042 -1.82562,0.84667 -0.79376,0.44979 -1.45521,0.82021 -0.635,0.37041 -1.42875,0.37041 -0.68792,0 -1.16417,-0.34396 -0.47625,-0.37041 -0.76729,-0.84666 z"
         id="path4503" />
      <path
         d="m 245.23682,85.387613 v 39.317107 h -6.53521 V 85.387613 Z"
         id="path4505" />
      <path
         d="m 258.36265,85.387613 v 39.317107 h -6.53521 V 85.387613 Z"
         id="path4507" />
      <path
         d="m 282.36285,108.0095 q 0,-1.27 -0.37041,-2.38125 -0.34396,-1.13771 -1.05834,-1.98438 -0.71437,-0.84666 -1.82562,-1.32291 -1.0848,-0.50271 -2.54001,-0.50271 -2.83104,0 -4.47146,1.61396 -1.61396,1.61396 -2.06375,4.57729 z m -12.46188,3.9423 q 0.15875,2.0902 0.74083,3.62479 0.58209,1.50812 1.53459,2.51354 0.9525,0.97896 2.24896,1.48167 1.32292,0.47625 2.91042,0.47625 1.5875,0 2.72521,-0.37042 1.16416,-0.37041 2.01083,-0.82021 0.87313,-0.44979 1.50813,-0.8202 0.66146,-0.37042 1.27,-0.37042 0.82021,0 1.21708,0.60854 l 1.87854,2.38125 q -1.08479,1.27 -2.43416,2.14313 -1.34938,0.84667 -2.83105,1.37583 -1.45521,0.50271 -2.98979,0.71438 -1.50813,0.21166 -2.93688,0.21166 -2.83104,0 -5.26521,-0.92604 -2.43417,-0.9525 -4.23333,-2.77812 -1.79917,-1.85209 -2.83105,-4.55084 -1.03187,-2.72521 -1.03187,-6.29709 0,-2.77812 0.89958,-5.21229 0.89958,-2.46063 2.56646,-4.2598 1.69333,-1.825622 4.10104,-2.883956 2.43417,-1.058334 5.47688,-1.058334 2.56646,0 4.73605,0.820208 2.16958,0.820209 3.73062,2.407712 1.56105,1.56104 2.43417,3.86292 0.89959,2.27542 0.89959,5.21229 0,1.48167 -0.3175,2.01084 -0.3175,0.50271 -1.21709,0.50271 z"
         id="path4509" />
      <path
         d="m 299.70382,85.387613 v 39.317107 h -6.53521 V 85.387613 Z"
         id="path4511" />
      <path
         d="m 312.98839,97.558453 v 27.146267 h -6.56167 V 97.558453 Z m 0.89959,-7.911046 q 0,0.846667 -0.34396,1.587501 -0.34396,0.740834 -0.92604,1.296459 -0.55563,0.555625 -1.32292,0.899584 -0.76729,0.3175 -1.64042,0.3175 -0.84667,0 -1.61396,-0.3175 -0.74083,-0.343959 -1.29646,-0.899584 -0.55562,-0.555625 -0.89958,-1.296459 -0.3175,-0.740834 -0.3175,-1.587501 0,-0.873126 0.3175,-1.640418 0.34396,-0.767292 0.89958,-1.322917 0.55563,-0.555626 1.29646,-0.873126 0.76729,-0.343958 1.61396,-0.343958 0.87313,0 1.64042,0.343958 0.76729,0.3175 1.32292,0.873126 0.58208,0.555625 0.92604,1.322917 0.34396,0.767292 0.34396,1.640418 z"
         id="path4513" />
      <path
         d="m 339.15074,100.2572 q 0,0.68792 -0.23812,1.34938 -0.23813,0.66146 -0.635,1.08479 l -12.88522,16.98626 h 13.36147 v 5.02709 h -20.95502 v -2.72521 q 0,-0.44979 0.21167,-1.05833 0.21167,-0.635 0.635,-1.19063 l 13.01751,-17.17147 h -13.09688 v -5.000627 h 20.58459 z"
         id="path4515" />
      <path
         d="m 360.91107,108.0095 q 0,-1.27 -0.37042,-2.38125 -0.34395,-1.13771 -1.05833,-1.98438 -0.71438,-0.84666 -1.82563,-1.32291 -1.08479,-0.50271 -2.54,-0.50271 -2.83104,0 -4.47146,1.61396 -1.61396,1.61396 -2.06375,4.57729 z m -12.46188,3.9423 q 0.15875,2.0902 0.74083,3.62479 0.58209,1.50812 1.53459,2.51354 0.9525,0.97896 2.24896,1.48167 1.32291,0.47625 2.91041,0.47625 1.58751,0 2.72521,-0.37042 1.16417,-0.37041 2.01084,-0.82021 0.87312,-0.44979 1.50812,-0.8202 0.66146,-0.37042 1.27001,-0.37042 0.8202,0 1.21708,0.60854 l 1.87854,2.38125 q -1.08479,1.27 -2.43417,2.14313 -1.34937,0.84667 -2.83104,1.37583 -1.45521,0.50271 -2.98979,0.71438 -1.50813,0.21166 -2.93688,0.21166 -2.83104,0 -5.26521,-0.92604 -2.43417,-0.9525 -4.23334,-2.77812 -1.79916,-1.85209 -2.83104,-4.55084 -1.03188,-2.72521 -1.03188,-6.29709 0,-2.77812 0.89959,-5.21229 0.89958,-2.46063 2.56646,-4.2598 1.69333,-1.825622 4.10104,-2.883956 2.43417,-1.058334 5.47688,-1.058334 2.56646,0 4.73605,0.820208 2.16958,0.820209 3.73062,2.407712 1.56104,1.56104 2.43417,3.86292 0.89958,2.27542 0.89958,5.21229 0,1.48167 -0.3175,2.01084 -0.3175,0.50271 -1.21708,0.50271 z"
         id="path4517" />
      <path
         d="m 377.80226,102.26804 q 1.27,-2.434169 3.01625,-3.810003 1.74625,-1.402292 4.1275,-1.402292 1.87855,0 3.01626,0.820208 l -0.42334,4.894797 q -0.13229,0.47625 -0.39687,0.68792 -0.23813,0.1852 -0.66146,0.1852 -0.39688,0 -1.19063,-0.13229 -0.76729,-0.13229 -1.50812,-0.13229 -1.0848,0 -1.93146,0.3175 -0.84667,0.3175 -1.53459,0.92604 -0.66146,0.58209 -1.19062,1.42875 -0.50271,0.84667 -0.9525,1.93146 v 16.72168 h -6.53522 V 97.558453 h 3.83647 q 1.00541,0 1.40229,0.370417 0.39687,0.343959 0.52916,1.270001 z"
         id="path4519" />
    </g>
    <g
       aria-label="srabbit"
       id="text495"
       style="font-weight:bold;font-size:10.5833px;line-height:1.25;font-family:'Noto Sans';-inkscape-font-specification:'Noto Sans Bold';stroke-width:0.264583"
       transform="translate(2.941667,1.529167)">
      <path
         d="m 38.510447,82.683625 q 0,0.888831 -0.620115,1.353918 -0.614948,0.465086 -1.844843,0.465086 -0.63045,0 -1.074866,-0.08785 -0.444416,-0.08268 -0.831988,-0.248046 v -1.302242 q 0.439248,0.206705 0.987016,0.346231 0.552937,0.139525 0.971514,0.139525 0.857826,0 0.857826,-0.496092 0,-0.186034 -0.113687,-0.299722 -0.113688,-0.118855 -0.39274,-0.263549 -0.279052,-0.149861 -0.744138,-0.346231 -0.666624,-0.279052 -0.981849,-0.516763 -0.310058,-0.23771 -0.454752,-0.5426 -0.139526,-0.310058 -0.139526,-0.759642 0,-0.769976 0.594278,-1.188554 0.599444,-0.423745 1.694981,-0.423745 1.043861,0 2.030877,0.454751 l -0.475421,1.136878 q -0.434081,-0.186035 -0.811318,-0.30489 -0.377236,-0.118856 -0.769976,-0.118856 -0.69763,0 -0.69763,0.377237 0,0.211873 0.222208,0.366902 0.227376,0.155029 0.987017,0.459919 0.676959,0.273884 0.992184,0.511595 0.315226,0.23771 0.465087,0.547768 0.149861,0.310058 0.149861,0.738972 z"
         id="path2778" />
      <path
         d="m 42.975277,78.51335 q 0.320392,0 0.532265,0.04651 l -0.118855,1.47794 q -0.191202,-0.05168 -0.465087,-0.05168 -0.754473,0 -1.178219,0.387572 -0.418577,0.387572 -0.418577,1.085202 v 2.94038 H 39.750677 V 78.62187 h 1.193722 l 0.232543,0.971514 h 0.07752 q 0.268716,-0.485757 0.723468,-0.780312 0.459918,-0.299722 0.997352,-0.299722 z"
         id="path2780" />
      <path
         d="m 48.132568,84.399277 -0.30489,-0.78548 h -0.04134 q -0.397907,0.50126 -0.821652,0.69763 -0.418578,0.191202 -1.095537,0.191202 -0.831988,0 -1.312577,-0.475421 -0.475422,-0.475422 -0.475422,-1.353919 0,-0.919837 0.640786,-1.353918 0.645953,-0.439248 1.943027,-0.485757 l 1.00252,-0.03101 v -0.253213 q 0,-0.878497 -0.899167,-0.878497 -0.692462,0 -1.627803,0.418578 l -0.52193,-1.064531 q 0.997352,-0.52193 2.211744,-0.52193 1.162716,0 1.782832,0.506427 0.620115,0.506427 0.620115,1.539953 v 3.849882 z m -0.465086,-2.676831 -0.60978,0.02067 q -0.687294,0.02067 -1.02319,0.248046 -0.335896,0.227375 -0.335896,0.692462 0,0.666623 0.764809,0.666623 0.547768,0 0.873329,-0.315225 0.330728,-0.315225 0.330728,-0.837155 z"
         id="path2782" />
      <path
         d="m 54.065004,78.51335 q 1.02319,0 1.601964,0.800982 0.578775,0.795815 0.578775,2.185906 0,1.431433 -0.599445,2.216912 -0.594277,0.785479 -1.622635,0.785479 -1.018022,0 -1.596796,-0.73897 h -0.108521 l -0.263549,0.635618 H 50.85074 v -8.040828 h 1.576127 v 1.870681 q 0,0.356567 -0.06201,1.142046 h 0.06201 q 0.552936,-0.857826 1.638137,-0.857826 z m -0.506427,1.260901 q -0.583942,0 -0.852659,0.361734 -0.268716,0.356566 -0.279051,1.183386 v 0.170532 q 0,0.930173 0.273884,1.333248 0.279052,0.403074 0.878496,0.403074 0.485757,0 0.769977,-0.444415 0.289387,-0.449584 0.289387,-1.302242 0,-0.852659 -0.289387,-1.276404 -0.289387,-0.428913 -0.790647,-0.428913 z"
         id="path2784" />
      <path
         d="m 60.762249,78.51335 q 1.02319,0 1.601964,0.800982 0.578774,0.795815 0.578774,2.185906 0,1.431433 -0.599444,2.216912 -0.594277,0.785479 -1.622635,0.785479 -1.018023,0 -1.596797,-0.73897 h -0.10852 l -0.263549,0.635618 h -1.204057 v -8.040828 h 1.576126 v 1.870681 q 0,0.356567 -0.06201,1.142046 h 0.06201 q 0.552936,-0.857826 1.638138,-0.857826 z m -0.506428,1.260901 q -0.583941,0 -0.852658,0.361734 -0.268717,0.356566 -0.279052,1.183386 v 0.170532 q 0,0.930173 0.273884,1.333248 0.279052,0.403074 0.878497,0.403074 0.485757,0 0.769976,-0.444415 0.289387,-0.449584 0.289387,-1.302242 0,-0.852659 -0.289387,-1.276404 -0.289387,-0.428913 -0.790647,-0.428913 z"
         id="path2786" />
      <path
         d="m 64.178049,77.128426 q 0,-0.769977 0.857826,-0.769977 0.857826,0 0.857826,0.769977 0,0.366901 -0.217041,0.573606 -0.211872,0.201538 -0.640785,0.201538 -0.857826,0 -0.857826,-0.775144 z m 1.643305,7.270851 H 64.245228 V 78.62187 h 1.576126 z"
         id="path2788" />
      <path
         d="m 69.903778,83.246896 q 0.41341,0 0.992184,-0.180867 v 1.173051 q -0.589109,0.263549 -1.446935,0.263549 -0.945676,0 -1.379757,-0.475421 -0.428913,-0.48059 -0.428913,-1.436601 v -2.78535 h -0.754473 v -0.666624 l 0.868161,-0.527098 0.454751,-1.21956 h 1.007688 v 1.229895 h 1.617467 v 1.183387 h -1.617467 v 2.78535 q 0,0.335896 0.186034,0.496093 0.191202,0.160196 0.50126,0.160196 z"
         id="path2790" />
    </g>
    <g
       aria-label="604"
       id="text1489"
       style="font-weight:900;font-size:50.8px;line-height:1.25;font-family:Lato;-inkscape-font-specification:'Lato Heavy';stroke-width:0.264583"
       transform="translate(3.478978,0.953862)">
      <path
         d="m 46.197387,118.03135 q 1.2192,0 2.2606,-0.4572 1.0668,-0.4572 1.8288,-1.2446 0.762,-0.8128 1.1938,-1.8796 0.4572,-1.0922 0.4572,-2.3622 0,-1.4224 -0.4318,-2.54 -0.4064,-1.1176 -1.1684,-1.8796 -0.762,-0.762 -1.8542,-1.1684 -1.0668,-0.4064 -2.3876,-0.4064 -1.1938,0 -2.1844,0.4318 -0.9906,0.4064 -1.727199,1.1938 -0.7112,0.7874 -1.1176,1.8796 -0.4064,1.0922 -0.4064,2.4638 0,1.3716 0.3302,2.4638 0.3302,1.0922 1.016,1.8796 0.6858,0.7874 1.727199,1.2192 1.0414,0.4064 2.4638,0.4064 z m -1.27,-16.9672 q 1.778,-0.6604 3.9624,-0.6604 2.0066,0 3.9624,0.6604 1.9558,0.6604 3.5052,2.032 1.5494,1.3716 2.4892,3.4798 0.9652,2.0828 0.9652,4.9276 0,2.5908 -0.9652,4.9276 -0.9652,2.3114 -2.7432,4.064 -1.7526,1.7272 -4.2418,2.7432 -2.4892,1.016 -5.5118,1.016 -3.0988,0 -5.562599,-0.9652 -2.4638,-0.9906 -4.191,-2.7432 -1.7018,-1.7526 -2.6162,-4.191 -0.889,-2.4384 -0.889,-5.3594 0,-5.461 4.2164,-11.099796 l 8.331199,-11.2522 q 0.5842,-0.7366 1.6764,-1.27 1.1176,-0.5334 2.54,-0.5334 h 7.0104 l -10.9728,13.1064 z"
         id="path2771" />
      <path
         d="m 89.432155,105.33135 q 0,4.8514 -1.0414,8.4074 -1.0414,3.556 -2.8956,5.8928 -1.8288,2.3368 -4.3688,3.4798 -2.5146,1.143 -5.461,1.143 -2.9464,0 -5.460999,-1.143 -2.4892,-1.143 -4.318,-3.4798 -1.8288,-2.3368 -2.8702,-5.8928 -1.016,-3.556 -1.016,-8.4074 0,-4.8514 1.016,-8.407396 1.0414,-3.556 2.8702,-5.8928 1.8288,-2.3368 4.318,-3.4544 2.514599,-1.143 5.460999,-1.143 2.9464,0 5.461,1.143 2.54,1.1176 4.3688,3.4544 1.8542,2.3368 2.8956,5.8928 1.0414,3.555996 1.0414,8.407396 z m -8.128,0 q 0,-3.8354 -0.4826,-6.273796 -0.4826,-2.4638 -1.2954,-3.8608 -0.7874,-1.397 -1.8034,-1.905 -1.016,-0.5334 -2.0574,-0.5334 -1.0414,0 -2.0574,0.5334 -0.9906,0.508 -1.778,1.905 -0.761999,1.397 -1.244599,3.8608 -0.4572,2.438396 -0.4572,6.273796 0,3.8608 0.4572,6.2992 0.4826,2.4384 1.244599,3.8608 0.7874,1.397 1.778,1.9304 1.016,0.508 2.0574,0.508 1.0414,0 2.0574,-0.508 1.016,-0.5334 1.8034,-1.9304 0.8128,-1.4224 1.2954,-3.8608 0.4826,-2.4384 0.4826,-6.2992 z"
         id="path2773" />
      <path
         d="m 108.10512,109.47155 v -9.651996 q 0,-0.889 0.0508,-1.905 0.0762,-1.0414 0.2032,-2.159 l -9.778996,13.715996 z m 10.668,0 v 4.4196 q 0,0.5842 -0.4064,1.016 -0.381,0.4318 -1.1176,0.4318 h -2.286 v 8.509 h -6.858 v -8.509 H 93.220724 q -0.7366,0 -1.3462,-0.4572 -0.5842,-0.4572 -0.7366,-1.143 l -0.8128,-3.8862 17.119596,-23.012396 h 7.5184 v 22.631396 z"
         id="path2775" />
    </g>
    <rect
       style="fill:url(#linearGradient1154);fill-opacity:1;stroke-width:2.33217"
       id="rect977"
       width="253.418"
       height="20"
       x="135.06996"
       y="128.88762" />
  </g>
</svg>
